<svg width="645" height="35" viewBox="0 0 645 35" fill="none" xmlns="http://www.w3.org/2000/svg">
<path d="M36 17L643 16.5033" stroke="#5C6B78"/>
<path d="M35.7412 14.5264C35.8552 15.1742 35.9327 15.8341 35.9713 16.5042L35.4722 16.533C35.4906 16.853 35.5 17.1754 35.5 17.5C35.5 17.8246 35.4906 18.147 35.4722 18.467L35.9713 18.4958C35.9327 19.1659 35.8552 19.8258 35.7412 20.4736L35.2488 20.3869C35.1362 21.0265 34.9868 21.6538 34.8028 22.2667L35.2817 22.4105C35.0899 23.0496 34.8616 23.6735 34.5992 24.2801L34.1403 24.0816C33.8836 24.675 33.5931 25.2513 33.2713 25.8083L33.7042 26.0585C33.3716 26.6341 33.0066 27.1895 32.6114 27.7225L32.2098 27.4247C31.8256 27.9427 31.4122 28.439 30.9717 28.9112L31.3373 29.2522C30.8851 29.737 30.4054 30.197 29.9004 30.63L29.575 30.2504C29.0862 30.6694 28.5732 31.0624 28.0381 31.427L28.3197 31.8402C27.773 32.2127 27.204 32.5565 26.6151 32.8692L26.3806 32.4276C25.8133 32.7288 25.2269 33.0004 24.6237 33.2402L24.8084 33.7048C24.1955 33.9485 23.5657 34.1602 22.9212 34.3379L22.7883 33.8559C22.1708 34.0262 21.5394 34.1643 20.8961 34.2684L20.9759 34.762C20.327 34.8669 19.6663 34.9381 18.9958 34.9737L18.9694 34.4744C18.6485 34.4914 18.3253 34.5 18 34.5C17.6747 34.5 17.3515 34.4914 17.0306 34.4744L17.0042 34.9737C16.3337 34.9381 15.673 34.8669 15.0241 34.762L15.1039 34.2684C14.4606 34.1643 13.8292 34.0262 13.2117 33.8559L13.0788 34.3379C12.4343 34.1602 11.8045 33.9485 11.1916 33.7048L11.3763 33.2402C10.7731 33.0004 10.1867 32.7288 9.61938 32.4276L9.3849 32.8692C8.79597 32.5565 8.227 32.2127 7.6803 31.8402L7.96187 31.427C7.42683 31.0624 6.91378 30.6694 6.42503 30.2504L6.09958 30.63C5.59464 30.197 5.11486 29.737 4.66265 29.2522L5.02828 28.9112C4.58783 28.439 4.17437 27.9427 3.79024 27.4247L3.3886 27.7225C2.99344 27.1895 2.62836 26.6341 2.29578 26.0585L2.72871 25.8083C2.40686 25.2513 2.11641 24.675 1.85968 24.0816L1.40079 24.2801C1.13835 23.6735 0.910063 23.0496 0.718264 22.4105L1.19716 22.2667C1.0132 21.6538 0.863832 21.0265 0.751234 20.3869L0.258808 20.4736C0.144751 19.8258 0.0673178 19.1659 0.0286554 18.4958L0.527825 18.467C0.50936 18.147 0.5 17.8246 0.5 17.5C0.5 17.1754 0.50936 16.853 0.527825 16.533L0.0286552 16.5042C0.0673175 15.8341 0.14475 15.1742 0.258807 14.5264L0.751233 14.6131C0.863832 13.9735 1.0132 13.3462 1.19716 12.7333L0.718263 12.5895C0.910063 11.9504 1.13835 11.3265 1.40079 10.7199L1.85968 10.9184C2.11641 10.325 2.40686 9.74869 2.72871 9.19166L2.29578 8.94151C2.62836 8.36593 2.99344 7.81049 3.3886 7.27754L3.79024 7.57535C4.17437 7.05729 4.58783 6.56101 5.02828 6.08882L4.66265 5.74777C5.11486 5.26298 5.59464 4.80295 6.09959 4.37003L6.42503 4.74962C6.91378 4.33058 7.42683 3.93762 7.96187 3.573L7.6803 3.15982C8.227 2.78727 8.79598 2.44351 9.3849 2.13081L9.61938 2.57242C10.1867 2.27121 10.7731 1.99962 11.3763 1.75981L11.1916 1.29518C11.8045 1.05153 12.4343 0.83978 13.0788 0.662072L13.2117 1.14409C13.8292 0.973843 14.4606 0.835697 15.1039 0.731635L15.0241 0.23805C15.673 0.133084 16.3337 0.0618709 17.0042 0.0263284L17.0306 0.525627C17.3515 0.508618 17.6747 0.5 18 0.5C18.3253 0.5 18.6485 0.508618 18.9694 0.525627L18.9958 0.0263283C19.6663 0.0618707 20.327 0.133084 20.9759 0.23805L20.8961 0.731635C21.5394 0.835696 22.1708 0.973843 22.7883 1.14409L22.9212 0.662072C23.5657 0.83978 24.1955 1.05153 24.8084 1.29518L24.6237 1.75981C25.2269 1.99962 25.8133 2.27121 26.3806 2.57242L26.6151 2.13081C27.204 2.44351 27.773 2.78727 28.3197 3.15983L28.0381 3.57301C28.5732 3.93762 29.0862 4.33058 29.575 4.74962L29.9004 4.37003C30.4054 4.80295 30.8851 5.26298 31.3373 5.74777L30.9717 6.08882C31.4122 6.56101 31.8256 7.05729 32.2098 7.57535L32.6114 7.27754C33.0066 7.81049 33.3716 8.36593 33.7042 8.94151L33.2713 9.19166C33.5931 9.74869 33.8836 10.325 34.1403 10.9184L34.5992 10.7199C34.8616 11.3265 35.0899 11.9504 35.2817 12.5895L34.8028 12.7333C34.9868 13.3462 35.1362 13.9735 35.2488 14.6131L35.7412 14.5264Z" fill="#90DAE5" fill-opacity="0.25" stroke="#5C2945" stroke-dasharray="2 2"/>
<path d="M11.36 13.472L17.48 9.2H20.36V26H16.88V13.28L13.016 15.8L11.36 13.472Z" fill="#5C2945"/>
<ellipse cx="262" cy="17.5" rx="18" ry="17.5" fill="#C4C4C4"/>
<path d="M259.152 16.04H260.832C261.616 16.04 262.216 15.856 262.632 15.488C263.064 15.12 263.28 14.624 263.28 14C263.28 13.392 263.064 12.904 262.632 12.536C262.216 12.168 261.672 11.984 261 11.984C260.44 11.984 259.952 12.104 259.536 12.344C259.136 12.584 258.872 12.824 258.744 13.064L258.552 13.424L256.032 11.96C256.064 11.88 256.112 11.776 256.176 11.648C256.256 11.504 256.44 11.264 256.728 10.928C257.032 10.576 257.36 10.272 257.712 10.016C258.08 9.744 258.584 9.504 259.224 9.296C259.864 9.072 260.552 8.96 261.288 8.96C262.824 8.96 264.12 9.384 265.176 10.232C266.232 11.064 266.76 12.152 266.76 13.496C266.76 14.296 266.544 15.024 266.112 15.68C265.696 16.32 265.12 16.84 264.384 17.24C265.28 17.64 265.976 18.192 266.472 18.896C266.984 19.6 267.24 20.416 267.24 21.344C267.24 22.8 266.664 23.984 265.512 24.896C264.376 25.792 262.92 26.24 261.144 26.24C260.344 26.24 259.6 26.128 258.912 25.904C258.224 25.68 257.672 25.416 257.256 25.112C256.856 24.792 256.504 24.48 256.2 24.176C255.912 23.856 255.712 23.584 255.6 23.36L255.432 23.024L258.024 21.464C258.04 21.512 258.072 21.576 258.12 21.656C258.168 21.736 258.28 21.88 258.456 22.088C258.648 22.296 258.848 22.48 259.056 22.64C259.264 22.784 259.552 22.92 259.92 23.048C260.288 23.176 260.672 23.24 261.072 23.24C261.872 23.24 262.52 23.024 263.016 22.592C263.512 22.144 263.76 21.608 263.76 20.984C263.76 20.312 263.504 19.76 262.992 19.328C262.48 18.896 261.752 18.68 260.808 18.68H259.152V16.04Z" fill="white"/>
<circle cx="505.5" cy="17.5" r="17.5" fill="#C4C4C4"/>
<path d="M500.872 19.04V9.2H511.192V12.2H503.992V15.704C504.776 15.128 505.672 14.84 506.68 14.84C508.264 14.84 509.552 15.36 510.544 16.4C511.536 17.44 512.032 18.72 512.032 20.24C512.032 21.984 511.448 23.424 510.28 24.56C509.128 25.68 507.64 26.24 505.816 26.24C505.08 26.24 504.384 26.136 503.728 25.928C503.072 25.72 502.536 25.464 502.12 25.16C501.72 24.856 501.36 24.552 501.04 24.248C500.736 23.944 500.52 23.688 500.392 23.48L500.2 23.168L502.792 21.32C502.824 21.368 502.864 21.432 502.912 21.512C502.96 21.592 503.072 21.728 503.248 21.92C503.424 22.112 503.616 22.288 503.824 22.448C504.048 22.592 504.328 22.728 504.664 22.856C505.016 22.984 505.384 23.048 505.768 23.048C506.616 23.048 507.288 22.8 507.784 22.304C508.296 21.792 508.552 21.136 508.552 20.336C508.552 19.648 508.312 19.064 507.832 18.584C507.368 18.104 506.76 17.864 506.008 17.864C505.544 17.864 505.128 17.968 504.76 18.176C504.408 18.368 504.168 18.56 504.04 18.752L503.848 19.04H500.872Z" fill="white"/>
<ellipse cx="384" cy="17.5" rx="18" ry="17.5" fill="#C4C4C4"/>
<path d="M380.648 19.544H385.256V13.28L380.648 19.544ZM377.768 19.472L385.16 9.2H388.568V19.544H390.968V22.28H388.568V26H385.256V22.28H377.768V19.472Z" fill="white"/>
<ellipse cx="627" cy="17.5" rx="18" ry="17.5" fill="#C4C4C4"/>
<path d="M624.424 22.256C624.92 22.784 625.568 23.048 626.368 23.048C627.168 23.048 627.816 22.784 628.312 22.256C628.824 21.728 629.08 21.064 629.08 20.264C629.08 19.464 628.824 18.808 628.312 18.296C627.816 17.768 627.168 17.504 626.368 17.504C625.568 17.504 624.92 17.768 624.424 18.296C623.928 18.824 623.68 19.48 623.68 20.264C623.68 21.064 623.928 21.728 624.424 22.256ZM621.688 15.728L626.08 9.2H629.968L625.888 15.104C626.272 14.928 626.704 14.84 627.184 14.84C628.656 14.84 629.92 15.344 630.976 16.352C632.032 17.36 632.56 18.616 632.56 20.12C632.56 21.896 631.952 23.36 630.736 24.512C629.536 25.664 628.064 26.24 626.32 26.24C624.624 26.24 623.176 25.68 621.976 24.56C620.792 23.44 620.2 22.032 620.2 20.336C620.2 18.736 620.696 17.2 621.688 15.728Z" fill="white"/>
<ellipse cx="140" cy="17.5" rx="18" ry="17.5" fill="#C4C4C4"/>
<path d="M134.224 23.336L140.032 17.6C140.736 16.912 141.224 16.328 141.496 15.848C141.768 15.368 141.904 14.84 141.904 14.264C141.904 13.64 141.68 13.12 141.232 12.704C140.8 12.272 140.24 12.056 139.552 12.056C138.944 12.056 138.384 12.24 137.872 12.608C137.36 12.96 137 13.312 136.792 13.664L136.48 14.192L133.96 12.56C133.992 12.464 134.048 12.336 134.128 12.176C134.208 12.016 134.408 11.728 134.728 11.312C135.048 10.896 135.408 10.528 135.808 10.208C136.224 9.888 136.792 9.6 137.512 9.344C138.248 9.088 139.04 8.96 139.888 8.96C141.472 8.96 142.784 9.432 143.824 10.376C144.864 11.304 145.384 12.464 145.384 13.856C145.384 14.944 145.152 15.912 144.688 16.76C144.224 17.592 143.448 18.528 142.36 19.568L138.808 23H145.264V26H134.224V23.336Z" fill="white"/>
</svg>
