<svg width="645" height="35" viewBox="0 0 645 35" fill="none" xmlns="http://www.w3.org/2000/svg">
<path d="M36 17L643 16.5033" stroke="#5C6B78"/>
<ellipse cx="627" cy="17.5" rx="18" ry="17.5" fill="#C4C4C4"/>
<path d="M624.424 22.256C624.92 22.784 625.568 23.048 626.368 23.048C627.168 23.048 627.816 22.784 628.312 22.256C628.824 21.728 629.08 21.064 629.08 20.264C629.08 19.464 628.824 18.808 628.312 18.296C627.816 17.768 627.168 17.504 626.368 17.504C625.568 17.504 624.92 17.768 624.424 18.296C623.928 18.824 623.68 19.48 623.68 20.264C623.68 21.064 623.928 21.728 624.424 22.256ZM621.688 15.728L626.08 9.2H629.968L625.888 15.104C626.272 14.928 626.704 14.84 627.184 14.84C628.656 14.84 629.92 15.344 630.976 16.352C632.032 17.36 632.56 18.616 632.56 20.12C632.56 21.896 631.952 23.36 630.736 24.512C629.536 25.664 628.064 26.24 626.32 26.24C624.624 26.24 623.176 25.68 621.976 24.56C620.792 23.44 620.2 22.032 620.2 20.336C620.2 18.736 620.696 17.2 621.688 15.728Z" fill="white"/>
<ellipse cx="140" cy="17.5" rx="18" ry="17.5" fill="#5C2945"/>
<path d="M132 17.5L137.368 23L149 12" stroke="white" stroke-width="2"/>
<ellipse cx="18" cy="17.5" rx="18" ry="17.5" fill="#5C2945"/>
<path d="M10 17.5L15.3684 23L27 12" stroke="white" stroke-width="2"/>
<ellipse cx="384" cy="17.5" rx="18" ry="17.5" fill="#5C2945"/>
<path d="M376 17.5L381.368 23L393 12" stroke="white" stroke-width="2"/>
<ellipse cx="262" cy="17.5" rx="18" ry="17.5" fill="#5C2945"/>
<path d="M254 17.5L259.368 23L271 12" stroke="white" stroke-width="2"/>
<circle cx="505.5" cy="17.5" r="17" fill="#CFE1E4" stroke="#5C2945" stroke-dasharray="2 2"/>
<path d="M499.672 18.84V9H509.992V12H502.792V15.504C503.576 14.928 504.472 14.64 505.48 14.64C507.064 14.64 508.352 15.16 509.344 16.2C510.336 17.24 510.832 18.52 510.832 20.04C510.832 21.784 510.248 23.224 509.08 24.36C507.928 25.48 506.44 26.04 504.616 26.04C503.88 26.04 503.184 25.936 502.528 25.728C501.872 25.52 501.336 25.264 500.92 24.96C500.52 24.656 500.16 24.352 499.84 24.048C499.536 23.744 499.32 23.488 499.192 23.28L499 22.968L501.592 21.12C501.624 21.168 501.664 21.232 501.712 21.312C501.76 21.392 501.872 21.528 502.048 21.72C502.224 21.912 502.416 22.088 502.624 22.248C502.848 22.392 503.128 22.528 503.464 22.656C503.816 22.784 504.184 22.848 504.568 22.848C505.416 22.848 506.088 22.6 506.584 22.104C507.096 21.592 507.352 20.936 507.352 20.136C507.352 19.448 507.112 18.864 506.632 18.384C506.168 17.904 505.56 17.664 504.808 17.664C504.344 17.664 503.928 17.768 503.56 17.976C503.208 18.168 502.968 18.36 502.84 18.552L502.648 18.84H499.672Z" fill="#7B3D5D"/>
</svg>
