<svg width="645" height="35" viewBox="0 0 645 35" fill="none" xmlns="http://www.w3.org/2000/svg">
<path d="M36 17.5L609 16.9999" stroke="#5C6B78"/>
<ellipse cx="506" cy="17.5" rx="18" ry="17.5" fill="#5C2945"/>
<path d="M498 17.5L503.368 23L515 12" stroke="white" stroke-width="2"/>
<ellipse cx="140" cy="17.5" rx="18" ry="17.5" fill="#5C2945"/>
<path d="M132 17.5L137.368 23L149 12" stroke="white" stroke-width="2"/>
<ellipse cx="18" cy="17.5" rx="18" ry="17.5" fill="#5C2945"/>
<path d="M10 17.5L15.3684 23L27 12" stroke="white" stroke-width="2"/>
<ellipse cx="384" cy="17.5" rx="18" ry="17.5" fill="#5C2945"/>
<path d="M376 17.5L381.368 23L393 12" stroke="white" stroke-width="2"/>
<ellipse cx="262" cy="17.5" rx="18" ry="17.5" fill="#5C2945"/>
<path d="M254 17.5L259.368 23L271 12" stroke="white" stroke-width="2"/>
<path d="M644.741 14.5264C644.855 15.1742 644.933 15.8341 644.971 16.5042L644.472 16.533C644.491 16.853 644.5 17.1754 644.5 17.5C644.5 17.8246 644.491 18.147 644.472 18.467L644.971 18.4958C644.933 19.1659 644.855 19.8258 644.741 20.4736L644.249 20.3869C644.136 21.0265 643.987 21.6538 643.803 22.2667L644.282 22.4105C644.09 23.0496 643.862 23.6735 643.599 24.2801L643.14 24.0816C642.884 24.675 642.593 25.2513 642.271 25.8083L642.704 26.0585C642.372 26.6341 642.007 27.1895 641.611 27.7225L641.21 27.4247C640.826 27.9427 640.412 28.439 639.972 28.9112L640.337 29.2522C639.885 29.737 639.405 30.197 638.9 30.63L638.575 30.2504C638.086 30.6694 637.573 31.0624 637.038 31.427L637.32 31.8402C636.773 32.2127 636.204 32.5565 635.615 32.8692L635.381 32.4276C634.813 32.7288 634.227 33.0004 633.624 33.2402L633.808 33.7048C633.196 33.9485 632.566 34.1602 631.921 34.3379L631.788 33.8559C631.171 34.0262 630.539 34.1643 629.896 34.2684L629.976 34.762C629.327 34.8669 628.666 34.9381 627.996 34.9737L627.969 34.4744C627.649 34.4914 627.325 34.5 627 34.5C626.675 34.5 626.351 34.4914 626.031 34.4744L626.004 34.9737C625.334 34.9381 624.673 34.8669 624.024 34.762L624.104 34.2684C623.461 34.1643 622.829 34.0262 622.212 33.8559L622.079 34.3379C621.434 34.1602 620.804 33.9485 620.192 33.7048L620.376 33.2402C619.773 33.0004 619.187 32.7288 618.619 32.4276L618.385 32.8692C617.796 32.5565 617.227 32.2127 616.68 31.8402L616.962 31.427C616.427 31.0624 615.914 30.6694 615.425 30.2504L615.1 30.63C614.595 30.197 614.115 29.737 613.663 29.2522L614.028 28.9112C613.588 28.439 613.174 27.9427 612.79 27.4247L612.389 27.7225C611.993 27.1895 611.628 26.6341 611.296 26.0585L611.729 25.8083C611.407 25.2513 611.116 24.675 610.86 24.0816L610.401 24.2801C610.138 23.6735 609.91 23.0496 609.718 22.4105L610.197 22.2667C610.013 21.6538 609.864 21.0265 609.751 20.3869L609.259 20.4736C609.145 19.8258 609.067 19.1659 609.029 18.4958L609.528 18.467C609.509 18.147 609.5 17.8246 609.5 17.5C609.5 17.1754 609.509 16.853 609.528 16.533L609.029 16.5042C609.067 15.8341 609.145 15.1742 609.259 14.5264L609.751 14.6131C609.864 13.9735 610.013 13.3462 610.197 12.7333L609.718 12.5895C609.91 11.9504 610.138 11.3265 610.401 10.7199L610.86 10.9184C611.116 10.325 611.407 9.74869 611.729 9.19166L611.296 8.94151C611.628 8.36593 611.993 7.81049 612.389 7.27754L612.79 7.57535C613.174 7.05729 613.588 6.56101 614.028 6.08882L613.663 5.74777C614.115 5.26298 614.595 4.80295 615.1 4.37003L615.425 4.74962C615.914 4.33058 616.427 3.93762 616.962 3.573L616.68 3.15982C617.227 2.78727 617.796 2.44351 618.385 2.13081L618.619 2.57242C619.187 2.27121 619.773 1.99962 620.376 1.75981L620.192 1.29518C620.804 1.05153 621.434 0.83978 622.079 0.662072L622.212 1.14409C622.829 0.973843 623.461 0.835696 624.104 0.731635L624.024 0.23805C624.673 0.133084 625.334 0.0618709 626.004 0.0263284L626.031 0.525627C626.351 0.508618 626.675 0.5 627 0.5C627.325 0.5 627.649 0.508618 627.969 0.525627L627.996 0.0263283C628.666 0.0618707 629.327 0.133084 629.976 0.23805L629.896 0.731635C630.539 0.835696 631.171 0.973843 631.788 1.14409L631.921 0.662072C632.566 0.83978 633.196 1.05153 633.808 1.29518L633.624 1.75981C634.227 1.99962 634.813 2.27121 635.381 2.57242L635.615 2.13081C636.204 2.44351 636.773 2.78727 637.32 3.15983L637.038 3.57301C637.573 3.93762 638.086 4.33058 638.575 4.74962L638.9 4.37003C639.405 4.80296 639.885 5.26298 640.337 5.74777L639.972 6.08882C640.412 6.56101 640.826 7.05729 641.21 7.57535L641.611 7.27754C642.007 7.81049 642.372 8.36593 642.704 8.94151L642.271 9.19166C642.593 9.74869 642.884 10.325 643.14 10.9184L643.599 10.7199C643.862 11.3265 644.09 11.9504 644.282 12.5895L643.803 12.7333C643.987 13.3462 644.136 13.9735 644.249 14.6131L644.741 14.5264Z" fill="#CFE1E4" stroke="#5C2945" stroke-dasharray="2 2"/>
<path d="M624.224 22.056C624.72 22.584 625.368 22.848 626.168 22.848C626.968 22.848 627.616 22.584 628.112 22.056C628.624 21.528 628.88 20.864 628.88 20.064C628.88 19.264 628.624 18.608 628.112 18.096C627.616 17.568 626.968 17.304 626.168 17.304C625.368 17.304 624.72 17.568 624.224 18.096C623.728 18.624 623.48 19.28 623.48 20.064C623.48 20.864 623.728 21.528 624.224 22.056ZM621.488 15.528L625.88 9H629.768L625.688 14.904C626.072 14.728 626.504 14.64 626.984 14.64C628.456 14.64 629.72 15.144 630.776 16.152C631.832 17.16 632.36 18.416 632.36 19.92C632.36 21.696 631.752 23.16 630.536 24.312C629.336 25.464 627.864 26.04 626.12 26.04C624.424 26.04 622.976 25.48 621.776 24.36C620.592 23.24 620 21.832 620 20.136C620 18.536 620.496 17 621.488 15.528Z" fill="#7B3D5D"/>
</svg>
