<svg width="767" height="35" viewBox="0 0 767 35" fill="none" xmlns="http://www.w3.org/2000/svg">
<path d="M34.5 17.5H733" stroke="#5C6B78"/>
<path d="M766.741 14.5264C766.855 15.1742 766.933 15.8341 766.971 16.5042L766.472 16.533C766.491 16.853 766.5 17.1754 766.5 17.5C766.5 17.8246 766.491 18.147 766.472 18.467L766.971 18.4958C766.933 19.1659 766.855 19.8258 766.741 20.4736L766.249 20.3869C766.136 21.0265 765.987 21.6538 765.803 22.2667L766.282 22.4105C766.09 23.0496 765.862 23.6735 765.599 24.2801L765.14 24.0816C764.884 24.675 764.593 25.2513 764.271 25.8083L764.704 26.0585C764.372 26.6341 764.007 27.1895 763.611 27.7225L763.21 27.4247C762.826 27.9427 762.412 28.439 761.972 28.9112L762.337 29.2522C761.885 29.737 761.405 30.197 760.9 30.63L760.575 30.2504C760.086 30.6694 759.573 31.0624 759.038 31.427L759.32 31.8402C758.773 32.2127 758.204 32.5565 757.615 32.8692L757.381 32.4276C756.813 32.7288 756.227 33.0004 755.624 33.2402L755.808 33.7048C755.196 33.9485 754.566 34.1602 753.921 34.3379L753.788 33.8559C753.171 34.0262 752.539 34.1643 751.896 34.2684L751.976 34.762C751.327 34.8669 750.666 34.9381 749.996 34.9737L749.969 34.4744C749.649 34.4914 749.325 34.5 749 34.5C748.675 34.5 748.351 34.4914 748.031 34.4744L748.004 34.9737C747.334 34.9381 746.673 34.8669 746.024 34.762L746.104 34.2684C745.461 34.1643 744.829 34.0262 744.212 33.8559L744.079 34.3379C743.434 34.1602 742.804 33.9485 742.192 33.7048L742.376 33.2402C741.773 33.0004 741.187 32.7288 740.619 32.4276L740.385 32.8692C739.796 32.5565 739.227 32.2127 738.68 31.8402L738.962 31.427C738.427 31.0624 737.914 30.6694 737.425 30.2504L737.1 30.63C736.595 30.197 736.115 29.737 735.663 29.2522L736.028 28.9112C735.588 28.439 735.174 27.9427 734.79 27.4247L734.389 27.7225C733.993 27.1895 733.628 26.6341 733.296 26.0585L733.729 25.8083C733.407 25.2513 733.116 24.675 732.86 24.0816L732.401 24.2801C732.138 23.6735 731.91 23.0496 731.718 22.4105L732.197 22.2667C732.013 21.6538 731.864 21.0265 731.751 20.3869L731.259 20.4736C731.145 19.8258 731.067 19.1659 731.029 18.4958L731.528 18.467C731.509 18.147 731.5 17.8246 731.5 17.5C731.5 17.1754 731.509 16.853 731.528 16.533L731.029 16.5042C731.067 15.8341 731.145 15.1742 731.259 14.5264L731.751 14.6131C731.864 13.9735 732.013 13.3462 732.197 12.7333L731.718 12.5895C731.91 11.9504 732.138 11.3265 732.401 10.7199L732.86 10.9184C733.116 10.325 733.407 9.74869 733.729 9.19166L733.296 8.94151C733.628 8.36593 733.993 7.81049 734.389 7.27754L734.79 7.57535C735.174 7.05729 735.588 6.56101 736.028 6.08882L735.663 5.74777C736.115 5.26298 736.595 4.80295 737.1 4.37003L737.425 4.74962C737.914 4.33058 738.427 3.93762 738.962 3.573L738.68 3.15982C739.227 2.78727 739.796 2.44351 740.385 2.13081L740.619 2.57242C741.187 2.27121 741.773 1.99962 742.376 1.75981L742.192 1.29518C742.804 1.05153 743.434 0.83978 744.079 0.662072L744.212 1.14409C744.829 0.973843 745.461 0.835696 746.104 0.731635L746.024 0.23805C746.673 0.133084 747.334 0.0618709 748.004 0.0263284L748.031 0.525627C748.351 0.508618 748.675 0.5 749 0.5C749.325 0.5 749.649 0.508618 749.969 0.525627L749.996 0.0263283C750.666 0.0618707 751.327 0.133084 751.976 0.23805L751.896 0.731635C752.539 0.835696 753.171 0.973843 753.788 1.14409L753.921 0.662072C754.566 0.83978 755.196 1.05153 755.808 1.29518L755.624 1.75981C756.227 1.99962 756.813 2.27121 757.381 2.57242L757.615 2.13081C758.204 2.44351 758.773 2.78727 759.32 3.15983L759.038 3.57301C759.573 3.93762 760.086 4.33058 760.575 4.74962L760.9 4.37003C761.405 4.80296 761.885 5.26298 762.337 5.74777L761.972 6.08882C762.412 6.56101 762.826 7.05729 763.21 7.57535L763.611 7.27754C764.007 7.81049 764.372 8.36593 764.704 8.94151L764.271 9.19166C764.593 9.74869 764.884 10.325 765.14 10.9184L765.599 10.7199C765.862 11.3265 766.09 11.9504 766.282 12.5895L765.803 12.7333C765.987 13.3462 766.136 13.9735 766.249 14.6131L766.741 14.5264Z" fill="#90DAE5" fill-opacity="0.25" stroke="#5C2945" stroke-dasharray="2 2"/>
<path d="M744.632 26L751.16 12.296H743.792V9.2H755.072V11.6L748.4 26H744.632Z" fill="#7B3D5D"/>
<ellipse cx="18" cy="17.5" rx="18" ry="17.5" fill="#5C2945"/>
<path d="M10 17.5L15.3684 23L27 12" stroke="white" stroke-width="2"/>
<ellipse cx="262" cy="17.5" rx="18" ry="17.5" fill="#5C2945"/>
<path d="M254 17.5L259.368 23L271 12" stroke="white" stroke-width="2"/>
<circle cx="505.5" cy="17.5" r="17.5" fill="#5C2945"/>
<path d="M497 17.5L502.368 23L514 12" stroke="white" stroke-width="2"/>
<ellipse cx="384" cy="17.5" rx="18" ry="17.5" fill="#5C2945"/>
<path d="M376 17.5L381.368 23L393 12" stroke="white" stroke-width="2"/>
<ellipse cx="627" cy="17.5" rx="18" ry="17.5" fill="#5C2945"/>
<path d="M619 17.5L624.368 23L636 12" stroke="white" stroke-width="2"/>
<ellipse cx="140" cy="17.5" rx="18" ry="17.5" fill="#5C2945"/>
<path d="M132 17.5L137.368 23L149 12" stroke="white" stroke-width="2"/>
</svg>
