<svg id="Layer_1" data-name="Layer 1" xmlns="http://www.w3.org/2000/svg" viewBox="0 0 50 50"><defs><style>.cls-1{fill:#fff;}</style></defs><path d="M25,14.08H38.67A2.85,2.85,0,0,1,41.61,17V33a2.84,2.84,0,0,1-2.93,2.93H11.32A2.84,2.84,0,0,1,8.39,33V17a2.85,2.85,0,0,1,2.9-2.9Zm14.27,1.39V15.4c-.21,0-.42-.06-.62-.06H11.18l-.51.09L25,27.32Zm.12,19.1L29.81,25l-.17.14-4.15,3.44a.66.66,0,0,1-1,0l-2.62-2.17L20.2,25l-9.59,9.57a5.22,5.22,0,0,0,.74.1H38.64C38.88,34.66,39.12,34.6,39.4,34.57Zm-29.68-1,9.44-9.43L9.74,16.31a5.8,5.8,0,0,0-.07.65q0,8,0,16.07A4.36,4.36,0,0,0,9.72,33.55ZM40.25,16.31l-9.4,7.81,9.43,9.43a3.59,3.59,0,0,0,0-.46V16.92A5.41,5.41,0,0,0,40.25,16.31Z"/><path class="cls-1" d="M39.28,15.47,25,27.32,10.67,15.43l.51-.09H38.66c.2,0,.41,0,.62.06Z"/><path class="cls-1" d="M39.4,34.57c-.28,0-.52.09-.76.09H11.35a5.22,5.22,0,0,1-.74-.1L20.2,25l1.69,1.4,2.62,2.17a.66.66,0,0,0,1,0l4.15-3.44.17-.14Z"/><path class="cls-1" d="M9.72,33.55A4.36,4.36,0,0,1,9.67,33q0-8,0-16.07a5.8,5.8,0,0,1,.07-.65l9.42,7.81Z"/><path class="cls-1" d="M40.25,16.31a5.41,5.41,0,0,1,.08.61V33.09a3.59,3.59,0,0,1,0,.46l-9.43-9.43Z"/></svg>