<svg width="158" height="35" viewBox="0 0 158 35" fill="none" xmlns="http://www.w3.org/2000/svg">
<path d="M36 17.5L145 17.117" stroke="#5C6B78"/>
<path d="M35.7412 14.5264C35.8552 15.1742 35.9327 15.8341 35.9713 16.5042L35.4722 16.533C35.4906 16.853 35.5 17.1754 35.5 17.5C35.5 17.8246 35.4906 18.147 35.4722 18.467L35.9713 18.4958C35.9327 19.1659 35.8552 19.8258 35.7412 20.4736L35.2488 20.3869C35.1362 21.0265 34.9868 21.6538 34.8028 22.2667L35.2817 22.4105C35.0899 23.0496 34.8616 23.6735 34.5992 24.2801L34.1403 24.0816C33.8836 24.675 33.5931 25.2513 33.2713 25.8083L33.7042 26.0585C33.3716 26.6341 33.0066 27.1895 32.6114 27.7225L32.2098 27.4247C31.8256 27.9427 31.4122 28.439 30.9717 28.9112L31.3373 29.2522C30.8851 29.737 30.4054 30.197 29.9004 30.63L29.575 30.2504C29.0862 30.6694 28.5732 31.0624 28.0381 31.427L28.3197 31.8402C27.773 32.2127 27.204 32.5565 26.6151 32.8692L26.3806 32.4276C25.8133 32.7288 25.2269 33.0004 24.6237 33.2402L24.8084 33.7048C24.1955 33.9485 23.5657 34.1602 22.9212 34.3379L22.7883 33.8559C22.1708 34.0262 21.5394 34.1643 20.8961 34.2684L20.9759 34.762C20.327 34.8669 19.6663 34.9381 18.9958 34.9737L18.9694 34.4744C18.6485 34.4914 18.3253 34.5 18 34.5C17.6747 34.5 17.3515 34.4914 17.0306 34.4744L17.0042 34.9737C16.3337 34.9381 15.673 34.8669 15.0241 34.762L15.1039 34.2684C14.4606 34.1643 13.8292 34.0262 13.2117 33.8559L13.0788 34.3379C12.4343 34.1602 11.8045 33.9485 11.1916 33.7048L11.3763 33.2402C10.7731 33.0004 10.1867 32.7288 9.61938 32.4276L9.3849 32.8692C8.79597 32.5565 8.227 32.2127 7.6803 31.8402L7.96187 31.427C7.42683 31.0624 6.91378 30.6694 6.42503 30.2504L6.09958 30.63C5.59463 30.197 5.11486 29.737 4.66265 29.2522L5.02828 28.9112C4.58783 28.439 4.17437 27.9427 3.79024 27.4247L3.3886 27.7225C2.99344 27.1895 2.62836 26.6341 2.29578 26.0585L2.72871 25.8083C2.40686 25.2513 2.11641 24.675 1.85968 24.0816L1.40079 24.2801C1.13835 23.6735 0.910063 23.0496 0.718264 22.4105L1.19716 22.2667C1.0132 21.6538 0.863832 21.0265 0.751234 20.3869L0.258808 20.4736C0.144751 19.8258 0.0673178 19.1659 0.0286554 18.4958L0.527825 18.467C0.50936 18.147 0.5 17.8246 0.5 17.5C0.5 17.1754 0.50936 16.853 0.527825 16.533L0.0286552 16.5042C0.0673175 15.8341 0.14475 15.1742 0.258807 14.5264L0.751233 14.6131C0.863832 13.9735 1.0132 13.3462 1.19716 12.7333L0.718263 12.5895C0.910063 11.9504 1.13835 11.3265 1.40079 10.7199L1.85968 10.9184C2.11641 10.325 2.40686 9.74869 2.72871 9.19166L2.29578 8.94151C2.62836 8.36593 2.99344 7.81049 3.3886 7.27754L3.79024 7.57535C4.17437 7.05729 4.58783 6.56101 5.02828 6.08882L4.66265 5.74777C5.11486 5.26298 5.59464 4.80295 6.09959 4.37003L6.42503 4.74962C6.91378 4.33058 7.42683 3.93762 7.96187 3.573L7.6803 3.15982C8.227 2.78727 8.79598 2.44351 9.3849 2.13081L9.61938 2.57242C10.1867 2.27121 10.7731 1.99962 11.3763 1.75981L11.1916 1.29518C11.8045 1.05153 12.4343 0.83978 13.0788 0.662072L13.2117 1.14409C13.8292 0.973843 14.4606 0.835696 15.1039 0.731635L15.0241 0.23805C15.673 0.133084 16.3337 0.0618709 17.0042 0.0263284L17.0306 0.525627C17.3515 0.508618 17.6747 0.5 18 0.5C18.3253 0.5 18.6485 0.508618 18.9694 0.525627L18.9958 0.0263283C19.6663 0.0618707 20.327 0.133084 20.9759 0.23805L20.8961 0.731635C21.5394 0.835696 22.1708 0.973843 22.7883 1.14409L22.9212 0.662072C23.5657 0.83978 24.1955 1.05153 24.8084 1.29518L24.6237 1.75981C25.2269 1.99962 25.8133 2.27121 26.3806 2.57242L26.6151 2.13081C27.204 2.44351 27.773 2.78727 28.3197 3.15983L28.0381 3.57301C28.5732 3.93762 29.0862 4.33058 29.575 4.74962L29.9004 4.37003C30.4054 4.80296 30.8851 5.26298 31.3373 5.74777L30.9717 6.08882C31.4122 6.56101 31.8256 7.05729 32.2098 7.57535L32.6114 7.27754C33.0066 7.81049 33.3716 8.36593 33.7042 8.94151L33.2713 9.19166C33.5931 9.74869 33.8836 10.325 34.1403 10.9184L34.5992 10.7199C34.8616 11.3265 35.0899 11.9504 35.2817 12.5895L34.8028 12.7333C34.9868 13.3462 35.1362 13.9735 35.2488 14.6131L35.7412 14.5264Z" fill="#90DAE5" fill-opacity="0.25" stroke="#5C2945" stroke-dasharray="2 2"/>
<path d="M17.48 9.2H20.36V26H16.88V13.28L13.04 15.8L11.36 13.472L17.48 9.2Z" fill="#5C2945"/>
<path d="M35.7412 14.5264C35.8552 15.1742 35.9327 15.8341 35.9713 16.5042L35.4722 16.533C35.4906 16.853 35.5 17.1754 35.5 17.5C35.5 17.8246 35.4906 18.147 35.4722 18.467L35.9713 18.4958C35.9327 19.1659 35.8552 19.8258 35.7412 20.4736L35.2488 20.3869C35.1362 21.0265 34.9868 21.6538 34.8028 22.2667L35.2817 22.4105C35.0899 23.0496 34.8616 23.6735 34.5992 24.2801L34.1403 24.0816C33.8836 24.675 33.5931 25.2513 33.2713 25.8083L33.7042 26.0585C33.3716 26.6341 33.0066 27.1895 32.6114 27.7225L32.2098 27.4247C31.8256 27.9427 31.4122 28.439 30.9717 28.9112L31.3373 29.2522C30.8851 29.737 30.4054 30.197 29.9004 30.63L29.575 30.2504C29.0862 30.6694 28.5732 31.0624 28.0381 31.427L28.3197 31.8402C27.773 32.2127 27.204 32.5565 26.6151 32.8692L26.3806 32.4276C25.8133 32.7288 25.2269 33.0004 24.6237 33.2402L24.8084 33.7048C24.1955 33.9485 23.5657 34.1602 22.9212 34.3379L22.7883 33.8559C22.1708 34.0262 21.5394 34.1643 20.8961 34.2684L20.9759 34.762C20.327 34.8669 19.6663 34.9381 18.9958 34.9737L18.9694 34.4744C18.6485 34.4914 18.3253 34.5 18 34.5C17.6747 34.5 17.3515 34.4914 17.0306 34.4744L17.0042 34.9737C16.3337 34.9381 15.673 34.8669 15.0241 34.762L15.1039 34.2684C14.4606 34.1643 13.8292 34.0262 13.2117 33.8559L13.0788 34.3379C12.4343 34.1602 11.8045 33.9485 11.1916 33.7048L11.3763 33.2402C10.7731 33.0004 10.1867 32.7288 9.61938 32.4276L9.3849 32.8692C8.79597 32.5565 8.227 32.2127 7.6803 31.8402L7.96187 31.427C7.42683 31.0624 6.91378 30.6694 6.42503 30.2504L6.09958 30.63C5.59463 30.197 5.11486 29.737 4.66265 29.2522L5.02828 28.9112C4.58783 28.439 4.17437 27.9427 3.79024 27.4247L3.3886 27.7225C2.99344 27.1895 2.62836 26.6341 2.29578 26.0585L2.72871 25.8083C2.40686 25.2513 2.11641 24.675 1.85968 24.0816L1.40079 24.2801C1.13835 23.6735 0.910063 23.0496 0.718264 22.4105L1.19716 22.2667C1.0132 21.6538 0.863832 21.0265 0.751234 20.3869L0.258808 20.4736C0.144751 19.8258 0.0673178 19.1659 0.0286554 18.4958L0.527825 18.467C0.50936 18.147 0.5 17.8246 0.5 17.5C0.5 17.1754 0.50936 16.853 0.527825 16.533L0.0286552 16.5042C0.0673175 15.8341 0.14475 15.1742 0.258807 14.5264L0.751233 14.6131C0.863832 13.9735 1.0132 13.3462 1.19716 12.7333L0.718263 12.5895C0.910063 11.9504 1.13835 11.3265 1.40079 10.7199L1.85968 10.9184C2.11641 10.325 2.40686 9.74869 2.72871 9.19166L2.29578 8.94151C2.62836 8.36593 2.99344 7.81049 3.3886 7.27754L3.79024 7.57535C4.17437 7.05729 4.58783 6.56101 5.02828 6.08882L4.66265 5.74777C5.11486 5.26298 5.59464 4.80295 6.09959 4.37003L6.42503 4.74962C6.91378 4.33058 7.42683 3.93762 7.96187 3.573L7.6803 3.15982C8.227 2.78727 8.79598 2.44351 9.3849 2.13081L9.61938 2.57242C10.1867 2.27121 10.7731 1.99962 11.3763 1.75981L11.1916 1.29518C11.8045 1.05153 12.4343 0.83978 13.0788 0.662072L13.2117 1.14409C13.8292 0.973843 14.4606 0.835696 15.1039 0.731635L15.0241 0.23805C15.673 0.133084 16.3337 0.0618709 17.0042 0.0263284L17.0306 0.525627C17.3515 0.508618 17.6747 0.5 18 0.5C18.3253 0.5 18.6485 0.508618 18.9694 0.525627L18.9958 0.0263283C19.6663 0.0618707 20.327 0.133084 20.9759 0.23805L20.8961 0.731635C21.5394 0.835696 22.1708 0.973843 22.7883 1.14409L22.9212 0.662072C23.5657 0.83978 24.1955 1.05153 24.8084 1.29518L24.6237 1.75981C25.2269 1.99962 25.8133 2.27121 26.3806 2.57242L26.6151 2.13081C27.204 2.44351 27.773 2.78727 28.3197 3.15983L28.0381 3.57301C28.5732 3.93762 29.0862 4.33058 29.575 4.74962L29.9004 4.37003C30.4054 4.80296 30.8851 5.26298 31.3373 5.74777L30.9717 6.08882C31.4122 6.56101 31.8256 7.05729 32.2098 7.57535L32.6114 7.27754C33.0066 7.81049 33.3716 8.36593 33.7042 8.94151L33.2713 9.19166C33.5931 9.74869 33.8836 10.325 34.1403 10.9184L34.5992 10.7199C34.8616 11.3265 35.0899 11.9504 35.2817 12.5895L34.8028 12.7333C34.9868 13.3462 35.1362 13.9735 35.2488 14.6131L35.7412 14.5264Z" fill="#90DAE5" fill-opacity="0.25" stroke="#5C2945" stroke-dasharray="2 2"/>
<path d="M18.48 8.2H21.36V25H17.88V12.28L14.04 14.8L12.36 12.472L18.48 8.2Z" fill="#7B3D5D"/>
<ellipse cx="140" cy="17.5" rx="18" ry="17.5" fill="#C4C4C4"/>
<path d="M134.264 23.376L140.072 17.64C140.776 16.952 141.264 16.368 141.536 15.888C141.808 15.408 141.944 14.88 141.944 14.304C141.944 13.68 141.72 13.16 141.272 12.744C140.84 12.312 140.28 12.096 139.592 12.096C138.984 12.096 138.424 12.28 137.912 12.648C137.4 13 137.04 13.352 136.832 13.704L136.52 14.232L134 12.6C134.032 12.504 134.088 12.376 134.168 12.216C134.248 12.056 134.448 11.768 134.768 11.352C135.088 10.936 135.448 10.568 135.848 10.248C136.264 9.928 136.832 9.64 137.552 9.384C138.288 9.128 139.08 9 139.928 9C141.512 9 142.824 9.472 143.864 10.416C144.904 11.344 145.424 12.504 145.424 13.896C145.424 14.984 145.192 15.952 144.728 16.8C144.264 17.632 143.488 18.568 142.4 19.608L138.848 23.04H145.304V26.04H134.264V23.376Z" fill="white"/>
</svg>
