<svg width="155" height="36" viewBox="0 0 155 36" fill="none" xmlns="http://www.w3.org/2000/svg">
<path d="M38.7244 21.2034C38.565 21.2189 38.4039 21.2038 38.2509 21.1588C38.0978 21.1138 37.9558 21.0399 37.8335 20.9415C37.7111 20.8432 37.6109 20.7224 37.5388 20.5863C37.4666 20.4503 37.4241 20.3019 37.4137 20.1498C37.4137 19.8494 37.5393 19.5612 37.7627 19.3488C37.9862 19.1363 38.2892 19.017 38.6052 19.017C38.7665 18.9998 38.9297 19.0141 39.085 19.0591C39.2402 19.104 39.3842 19.1786 39.508 19.2783C39.6318 19.378 39.733 19.5007 39.8051 19.6389C39.8773 19.7771 39.919 19.9278 39.9278 20.0819C39.9278 20.3823 39.8022 20.6704 39.5788 20.8829C39.3553 21.0953 39.0523 21.2147 38.7363 21.2147L38.7244 21.2034ZM34.2563 12.9904C34.0824 13.0377 33.8995 13.0468 33.7214 13.017C33.5433 12.9871 33.3746 12.9191 33.2283 12.8181C33.0819 12.7171 32.9616 12.5857 32.8766 12.434C32.7916 12.2822 32.744 12.114 32.7374 11.9422C32.7309 11.7703 32.7656 11.5993 32.8389 11.4421C32.9123 11.2849 33.0223 11.1456 33.1606 11.0349C33.2989 10.9241 33.462 10.8447 33.6374 10.8028C33.8128 10.7608 33.9959 10.7573 34.1729 10.7927C34.3342 10.7755 34.4974 10.7898 34.6527 10.8347C34.8079 10.8796 34.9519 10.9542 35.0757 11.054C35.1995 11.1537 35.3006 11.2763 35.3728 11.4145C35.445 11.5527 35.4867 11.7035 35.4955 11.8575C35.4955 12.158 35.3699 12.4461 35.1465 12.6585C34.923 12.871 34.62 12.9904 34.304 12.9904H34.2563ZM41.6793 18.7904C41.3763 18.1954 40.9095 17.6894 40.3284 17.3263C39.7473 16.9633 39.0735 16.7568 38.3788 16.7287C37.9498 16.5501 37.5971 16.2386 37.378 15.845V15.7545C37.1473 15.3823 37.0789 14.9391 37.1874 14.5196C37.473 14.0557 37.659 13.5424 37.7347 13.0096C37.8103 12.4769 37.7742 11.9351 37.6282 11.4157C37.6282 11.2684 37.4018 10.9512 37.3303 10.8153L37.235 10.6567C36.915 10.1818 36.4689 9.7956 35.9417 9.53704C35.4146 9.27847 34.825 9.15674 34.2325 9.18406C33.7853 9.18512 33.3432 9.2738 32.9338 9.44459C32.5537 9.57831 32.2073 9.78607 31.9167 10.0546C31.6261 10.3231 31.3978 10.6464 31.2463 11.0037C31.0949 11.361 31.0237 11.7445 31.0373 12.1295C31.0509 12.5146 31.1489 12.8927 31.3253 13.2395C31.3999 13.3718 31.4877 13.497 31.5874 13.6134C31.7921 13.929 31.9637 14.2629 32.0997 14.6103C32.1299 14.7611 32.1275 14.9163 32.0927 15.0662C32.0579 15.2162 31.9914 15.3578 31.8972 15.4826C31.8972 15.5732 31.6589 15.7658 30.8963 16.117C30.7478 16.183 30.6277 16.2956 30.5561 16.4359C30.4845 16.5761 30.4658 16.7355 30.5031 16.8873L33.3865 15.7545C33.5436 15.6864 33.7143 15.6516 33.8869 15.6525C34.2082 15.6517 34.5234 15.736 34.797 15.8961C35.0706 16.0562 35.2919 16.2857 35.4359 16.5587C35.5394 16.7415 35.6004 16.9434 35.6148 17.1505C35.6292 17.3577 35.5966 17.5654 35.5193 17.7595C35.3814 18.0622 35.125 18.302 34.8044 18.4279L31.9329 19.5608C32.0179 19.6556 32.1239 19.7312 32.2435 19.7821C32.363 19.8331 32.493 19.8581 32.624 19.8553C32.7351 19.8545 32.8447 19.8313 32.9457 19.7873C33.2713 19.6697 33.6118 19.5936 33.9584 19.5608H34.0538C34.4004 19.5954 34.7221 19.7484 34.9593 19.9912C35.1352 20.2439 35.2905 20.509 35.424 20.7842C35.4704 20.9611 35.5384 21.1321 35.6265 21.2939C35.9328 21.8165 36.3858 22.2478 36.9349 22.5399C37.484 22.8319 38.1077 22.9732 38.7363 22.9479C39.1782 22.9263 39.6132 22.8344 40.0231 22.676C40.4078 22.5399 40.7579 22.3277 41.0502 22.0537C41.3425 21.7796 41.5704 21.4498 41.719 21.086C41.8676 20.7221 41.9334 20.3324 41.9122 19.9426C41.891 19.5528 41.7832 19.1717 41.5958 18.8244" fill="#717171"/>
<path d="M34.3673 32.2013C34.2542 32.571 33.9895 32.8875 33.6274 33.0859C33.2654 33.2842 32.8333 33.3493 32.42 33.268C32.22 33.2417 32.0279 33.1791 31.8552 33.084C31.6824 32.9888 31.5326 32.8632 31.4146 32.7144C31.2966 32.5656 31.2128 32.3968 31.1683 32.218C31.1238 32.0392 31.1194 31.854 31.1555 31.6737C31.2659 31.3018 31.5295 30.9827 31.8919 30.7821C32.2543 30.5814 32.6877 30.5147 33.1028 30.5956C33.3033 30.6233 33.4956 30.6872 33.6685 30.7835C33.8413 30.8798 33.991 31.0065 34.1089 31.1562C34.2268 31.3059 34.3104 31.4755 34.3548 31.6551C34.3992 31.8346 34.4034 32.0203 34.3673 32.2013ZM27.3746 28.0492L30.1186 29.4141C30.01 29.5589 29.9642 29.735 29.9899 29.9085C30.0155 30.0821 30.1109 30.2409 30.2577 30.3547L30.6497 30.7332C30.5404 30.8652 30.4471 31.0074 30.3715 31.1576H29.7645C29.569 31.1195 29.3652 31.1377 29.1816 31.2097C28.998 31.2816 28.8437 31.4037 28.7403 31.559L25.7687 30.5611C26.4027 29.8037 26.9255 28.9747 27.324 28.095L27.3746 28.0492ZM14.1226 34.8968C13.7432 34.8968 13.3512 34.8968 12.9719 34.8968C9.56403 34.6911 6.36708 33.3272 4.01918 31.0773C2.91781 30.0319 2.07599 28.7847 1.55034 27.4195C1.02469 26.0544 0.827392 24.603 0.97172 23.1629C1.56604 17.6114 7.29425 13.2643 14.0846 13.2643C14.4766 13.2643 14.856 13.2643 15.248 13.2643C18.6552 13.4722 21.8513 14.8358 24.2007 17.0838C24.7384 17.6132 25.217 18.1895 25.6296 18.8043L24.9973 19.0338C23.9234 17.5312 22.4765 16.2776 20.7726 15.3733C19.0686 14.4691 17.155 13.9393 15.1848 13.8263C13.0289 13.667 10.8621 13.9737 8.86223 14.721C8.82793 14.7334 8.79684 14.7521 8.77094 14.7759C8.74504 14.7997 8.72491 14.8282 8.71182 14.8595C8.69873 14.8908 8.69298 14.9242 8.69493 14.9576C8.69688 14.9911 8.70648 15.0238 8.72313 15.0536C8.76258 15.1121 8.82381 15.1558 8.89572 15.1768C8.96763 15.1979 9.04547 15.1949 9.11514 15.1684C11.0119 14.4627 13.0652 14.172 15.1089 14.3196C16.986 14.4095 18.8137 14.8973 20.4453 15.7439C22.077 16.5905 23.4671 17.7723 24.5042 19.1944L23.8593 19.4352C22.8944 18.1085 21.6028 17.0034 20.0864 16.2072C18.57 15.411 16.8703 14.9454 15.1215 14.8472C14.8054 14.8472 14.4766 14.8472 14.1479 14.8472C8.39437 14.8472 3.51338 18.5405 3.02022 23.2547C2.8885 24.4721 3.04608 25.701 3.48234 26.8585C3.91861 28.016 4.62342 29.0752 5.54923 29.9646C7.53935 31.8722 10.2477 33.031 13.1363 33.2107H14.1226C17.2152 33.2242 20.1882 32.1274 22.3924 30.1597L23.1006 30.389C21.814 31.5823 20.2522 32.5025 18.5273 33.0836C16.8023 33.6646 14.957 33.8921 13.1236 33.7498C10.0519 33.5679 7.16982 32.3386 5.05608 30.3088C4.06107 29.3679 3.301 28.2437 2.82752 27.0126C2.35405 25.7816 2.17826 24.4726 2.31209 23.1744C2.49699 21.6344 3.08902 20.1577 4.03786 18.8697C4.9867 17.5817 6.26431 16.5205 7.76212 15.7762C7.79389 15.7598 7.82158 15.7377 7.84345 15.7111C7.86531 15.6845 7.88088 15.654 7.88919 15.6217C7.8975 15.5894 7.89837 15.5559 7.89173 15.5233C7.88509 15.4907 7.87111 15.4596 7.85063 15.4322C7.80336 15.3787 7.73658 15.3424 7.66235 15.3298C7.58813 15.3172 7.51138 15.3291 7.44599 15.3633C5.87807 16.1474 4.5413 17.2623 3.54867 18.6139C2.55604 19.9655 1.93672 21.5141 1.74307 23.1286C1.60415 24.4915 1.78967 25.8655 2.28709 27.1578C2.7845 28.45 3.58218 29.6302 4.62614 30.6185C6.85372 32.755 9.88872 34.0496 13.1236 34.243C13.4777 34.243 13.8444 34.243 14.1984 34.243C15.9804 34.251 17.7453 33.9285 19.3849 33.2954C21.0245 32.6622 22.5041 31.7318 23.7328 30.5611L24.3777 30.779C23.0813 32.0604 21.5037 33.0815 19.7463 33.7768C17.9888 34.4722 16.0905 34.8263 14.1732 34.8165L14.1226 34.8968ZM18.5104 11.8765H19.1427C20.9437 11.8844 22.69 11.3158 24.0742 10.2706L25.3387 16.7971L24.9973 16.4645C22.4874 14.0501 19.0629 12.5872 15.4124 12.3697C15.0077 12.3697 14.5904 12.3697 14.1479 12.3697C11.6405 12.3656 9.17175 12.9293 6.96547 14.0099L12.4787 8.27487C13.0549 9.29848 13.9155 10.168 14.9756 10.7977C16.0356 11.4273 17.2583 11.7952 18.5231 11.865L18.5104 11.8765ZM13.2248 5.48767C13.4377 4.21564 14.1578 3.05873 15.2486 2.23631C16.3394 1.41389 17.725 0.983143 19.1427 1.02581H19.6611C20.3909 1.07963 21.1051 1.24643 21.7728 1.51901L20.7107 3.03307C20.3081 2.88243 19.8808 2.79331 19.4461 2.76928C18.4719 2.66682 17.4917 2.91063 16.7113 3.44954C15.931 3.98845 15.411 4.78054 15.2606 5.65967C15.2606 5.78584 15.2606 5.91203 15.2606 6.03821L13.1995 6.25614C13.1805 6.01175 13.1805 5.76643 13.1995 5.52204L13.2248 5.48767ZM23.8213 3.03307L22.1143 3.9851C21.9081 3.77537 21.6696 3.59375 21.4061 3.44597L22.443 1.96636C22.9602 2.2555 23.4251 2.6153 23.8213 3.03307ZM24.2639 3.57212C24.5856 4.00848 24.817 4.49433 24.9467 5.00588L22.8983 5.24677C22.8194 4.98989 22.7046 4.74318 22.5568 4.51267L24.2639 3.57212ZM25.0606 6.43963C25.0314 6.696 24.9764 6.94944 24.8962 7.19669L22.9235 6.68052C22.9612 6.55276 22.9866 6.42232 22.9994 6.29058C23.0121 6.16084 23.0121 6.03031 22.9994 5.90057L25.0606 5.64826C25.0857 5.91158 25.0857 6.17631 25.0606 6.43963ZM22.1901 7.96516C22.3774 7.7581 22.5425 7.53532 22.6833 7.29988L24.6686 7.81604C24.4262 8.29861 24.102 8.74373 23.7075 9.13512L22.1901 7.96516ZM21.6464 8.43547L23.1511 9.58247C22.6818 9.93662 22.1578 10.2265 21.5958 10.4427L20.8624 8.83689C21.1392 8.72032 21.4019 8.57811 21.6464 8.41251V8.43547ZM17.5115 8.87134C17.7932 8.98751 18.0909 9.06849 18.3966 9.11216L18.1816 10.8098C17.5647 10.735 16.9637 10.5764 16.3987 10.3395L17.5115 8.87134ZM13.9708 8.40103C13.6664 7.95907 13.4443 7.47468 13.3133 6.96727L15.3871 6.73786C15.4536 6.99305 15.5646 7.23699 15.7159 7.46048L13.9708 8.40103ZM16.1458 8.01108C16.3366 8.20316 16.5533 8.37271 16.7907 8.51577L15.7159 9.9839C15.2082 9.70128 14.7554 9.34478 14.3755 8.92867L16.1458 8.01108ZM20.8624 10.6721C20.2571 10.8224 19.6309 10.892 19.0036 10.8786L19.1806 9.1695C19.496 9.17051 19.8104 9.13587 20.1163 9.06631L20.8624 10.6721ZM18.8771 8.51577C18.0816 8.46896 17.3355 8.14902 16.7907 7.62107C16.5333 7.37707 16.336 7.08631 16.2117 6.76796C16.0875 6.44962 16.0391 6.11097 16.0699 5.77442C16.1865 5.1183 16.5629 4.52329 17.1286 4.10096C17.6943 3.67863 18.4104 3.45799 19.1427 3.48041H19.4461C19.8292 3.49067 20.2062 3.57012 20.5551 3.7141C20.9039 3.85808 21.2176 4.06371 21.4778 4.31896C21.738 4.57421 21.9395 4.87392 22.0705 5.20064C22.2015 5.52735 22.2594 5.87453 22.2407 6.22176C22.1216 6.92028 21.7085 7.54963 21.0882 7.97748C20.468 8.40533 19.689 8.59832 18.9151 8.51577H18.8771ZM26.0089 27.3495L26.6033 27.6478C26.1948 28.5728 25.6457 29.4414 24.972 30.2285L24.3271 30.0106C25.0368 29.2082 25.6042 28.3104 26.0089 27.3495ZM24.8582 26.776L25.4778 27.0971C25.0825 28.0844 24.5053 29.0036 23.7708 29.8155L23.0753 29.5862C23.8581 28.7589 24.4629 27.8056 24.8582 26.776ZM14.6157 31.7081L14.5525 27.4298L20.7107 29.5517C19.0081 30.8778 16.8585 31.6383 14.6157 31.7081ZM11.3027 25.6864C11.7819 26.2392 12.4413 26.6406 13.1868 26.8334L12.0994 31.5705C10.1221 31.2246 8.31365 30.3262 6.92754 29.0012C6.67464 28.7374 6.43439 28.4736 6.21942 28.1983L11.3027 25.6864ZM13.7559 16.2351V20.9149C12.9436 20.9929 12.1808 21.3066 11.5809 21.8095L7.20573 18.724C8.96183 17.1986 11.2753 16.3127 13.7053 16.2351H13.7559ZM19.7749 20.9149L19.6358 20.9951L17.2712 22.1421C16.7501 21.5616 16.0284 21.1574 15.2227 20.9951L16.2722 16.4071C18.6293 16.8425 20.7168 18.0721 22.1143 19.8481L19.7749 20.9149ZM18.8265 22.9106L23.1006 21.6833C23.468 22.6319 23.6018 23.6421 23.4926 24.6426C23.4764 24.8315 23.4468 25.0192 23.404 25.2046L18.8265 22.9106ZM16.6895 26.1452L20.0784 28.5424L15.0962 26.8334C15.6796 26.7208 16.2255 26.485 16.6895 26.1452ZM11.72 23.8512C11.7246 23.8224 11.7355 23.7947 11.7521 23.7698C11.7687 23.7449 11.7905 23.7233 11.8165 23.7062C11.8424 23.6891 11.8718 23.6769 11.903 23.6703C11.9343 23.6637 11.9666 23.6627 11.9982 23.6676C12.0597 23.6734 12.1164 23.7005 12.1564 23.7432C12.1964 23.786 12.2168 23.8411 12.2132 23.897C12.1945 24.0265 12.1945 24.1576 12.2132 24.287C12.2128 24.4393 12.2542 24.5893 12.3337 24.7235C12.4131 24.8576 12.5282 24.9718 12.6684 25.0555C12.8762 25.1863 13.114 25.2726 13.3639 25.3078C13.394 25.312 13.4228 25.3216 13.4487 25.336C13.4746 25.3505 13.4971 25.3695 13.5148 25.392C13.5325 25.4144 13.545 25.4398 13.5517 25.4667C13.5583 25.4937 13.559 25.5216 13.5535 25.5487C13.5418 25.5983 13.5114 25.6426 13.4675 25.674C13.4237 25.7054 13.3692 25.7219 13.3133 25.7208C12.9278 25.6672 12.5653 25.5206 12.2638 25.2963C11.9906 25.0742 11.8192 24.7673 11.7832 24.4361C11.7453 24.2465 11.7453 24.0522 11.7832 23.8626L11.72 23.8512ZM22.5315 27.5903L17.5747 25.2963C17.7792 24.9726 17.9043 24.6127 17.9414 24.2411C17.9743 23.9336 17.9486 23.6232 17.8655 23.3235L23.2397 25.9731C23.0597 26.5253 22.8094 27.0565 22.4936 27.556L22.5315 27.5903ZM26.0089 24.8261C25.9469 25.3366 25.8454 25.8425 25.7054 26.3402L25.0606 26.019C25.1794 25.613 25.2598 25.1986 25.3008 24.7802C25.4381 23.4579 25.2257 22.1249 24.6812 20.8919L25.3261 20.651C25.9219 21.9723 26.1562 23.4048 26.0089 24.8261ZM4.76524 23.3235C4.87889 22.3002 5.23242 21.3108 5.80213 20.4216L10.8602 22.773C10.7176 23.0598 10.6279 23.3659 10.5946 23.6791C10.5622 24.0266 10.6007 24.3766 10.7084 24.7114L5.14459 26.3172C4.78651 25.3627 4.65297 24.3507 4.75259 23.3465L4.76524 23.3235ZM27.2734 24.9523C27.1968 25.6251 27.0485 26.2897 26.8309 26.9366L26.2239 26.6269C26.4043 26.061 26.527 25.4812 26.5906 24.8949C26.7472 23.387 26.4954 21.8671 25.8572 20.4675L26.5021 20.2266C27.1817 21.7208 27.4465 23.3435 27.2734 24.9523ZM35.8341 31.6163H35.2272C35.1934 31.4615 35.1382 31.3113 35.0628 31.1691L35.5307 30.8479C35.9479 30.5611 36.0997 30.1252 35.8468 29.8844C35.6637 29.7524 35.4334 29.6865 35.2 29.6992C34.9666 29.7119 34.7466 29.8023 34.5823 29.9532L34.1144 30.2744C33.9493 30.1843 33.7759 30.1075 33.596 30.0449V29.5403C33.6382 29.355 33.5999 29.1622 33.4892 29.0019C33.3785 28.8416 33.2038 28.7263 33.0016 28.68C32.789 28.6942 32.5898 28.7795 32.4426 28.9194C32.2954 29.0593 32.2107 29.2438 32.205 29.4371V29.7238L27.5643 27.4298C28.4751 25.0029 28.367 22.3564 27.2608 19.9972L33.5833 17.6229C33.6594 17.5957 33.7282 17.554 33.7849 17.5006C33.8417 17.4472 33.8851 17.3833 33.9121 17.3133C33.9675 17.2055 33.9962 17.0881 33.9962 16.9692C33.9962 16.8503 33.9675 16.7328 33.9121 16.625C33.7849 16.3932 33.5624 16.2161 33.2925 16.1318C33.1363 16.0862 32.9682 16.0862 32.812 16.1318L26.4894 18.5061L26.4009 18.38L24.795 9.743C25.6979 8.83718 26.2526 7.69015 26.3756 6.47407C26.4163 5.65399 26.2768 4.83475 25.9653 4.06399C25.6538 3.29324 25.1765 2.58636 24.5611 1.98442C23.9458 1.38248 23.2046 0.897488 22.3808 0.557672C21.5569 0.217856 20.6669 0.0299788 19.7623 0.00496346H19.13C17.3875 -0.057243 15.6811 0.467059 14.339 1.47701C12.9968 2.48696 12.1136 3.91129 11.8591 5.47619C11.7849 6.17204 11.8666 6.87431 12.0994 7.54077L3.65248 16.2466C1.62655 18.053 0.353074 20.4403 0.0486358 23.0023C-0.105059 24.5445 0.106515 26.0987 0.669186 27.5606C1.23186 29.0225 2.13261 30.3584 3.31105 31.4787C5.82246 33.8912 9.24607 35.3538 12.896 35.5735C13.3133 35.5735 13.7306 35.5735 14.1605 35.5735C16.2575 35.5854 18.3331 35.1904 20.248 34.4149C22.1628 33.6394 23.8727 32.5014 25.2629 31.0773L30.3209 32.7863L29.9542 33.0386C29.5369 33.3139 29.3852 33.7383 29.6381 33.9906C29.8051 34.1152 30.014 34.1842 30.2302 34.1862C30.4463 34.1883 30.6568 34.1234 30.8267 34.0021L31.2946 33.6809C31.4572 33.7751 31.6311 33.8521 31.813 33.9103V34.415C31.7708 34.6002 31.8091 34.7931 31.9198 34.9534C32.0305 35.1136 32.2052 35.2289 32.4073 35.2753C32.6199 35.2665 32.8207 35.1845 32.9688 35.0459C33.1168 34.9074 33.201 34.7227 33.204 34.5298L33.2672 34.0251C33.4561 33.9914 33.642 33.9454 33.8236 33.8874L34.2029 34.2774C34.3337 34.4362 34.5208 34.5492 34.7328 34.5973C34.9448 34.6453 35.1685 34.6255 35.3663 34.5412C35.6698 34.3347 35.6318 33.8989 35.2904 33.5548L34.8984 33.1648C35.0077 33.0329 35.101 32.8906 35.1766 32.7404H35.7836C36.3273 32.7404 36.7952 32.5683 36.8331 32.2472C36.871 31.926 36.4664 31.6393 35.9227 31.6049" fill="#717171"/>
<path d="M55.5125 17.6348H59.6206V17.3156C59.6778 16.7931 59.7036 16.2682 59.6979 15.7431C59.6979 12.196 57.9593 10.3279 54.5467 10.3279C52.2672 10.3279 49.5371 11.191 49.5371 15.3292V25.9704C49.5371 30.1205 52.2672 30.9836 54.5467 30.9836C57.9593 30.9836 59.6979 29.1273 59.6979 25.4739C59.6979 25.1665 59.6979 24.8709 59.6979 24.4689C59.6979 24.0669 59.6979 23.8541 59.6979 23.4284V23.0855H55.5898V23.452C55.5898 23.7831 55.5898 24.055 55.5898 24.2915C55.5898 24.7408 55.5898 25.0837 55.5898 25.4739C55.5898 27.7085 55.1133 27.7085 54.5467 27.7085C53.98 27.7085 53.6452 27.7085 53.6452 25.935V15.2938C53.6452 13.5203 53.9671 13.5203 54.5467 13.5203C55.1262 13.5203 55.5898 13.6385 55.5898 15.885C55.6183 16.3221 55.6183 16.7603 55.5898 17.1974L55.5125 17.6348Z" fill="#5C2945"/>
<path d="M66.3662 14.7871C66.3662 13.6083 66.8204 13.6083 67.3135 13.6083C67.8067 13.6083 68.2609 13.6908 68.2609 14.7871V26.5757C68.2609 27.7546 67.8197 27.7546 67.3135 27.7546C66.8074 27.7546 66.3662 27.6603 66.3662 26.5757V14.7871ZM67.3135 10.331C66.5025 10.3068 65.6961 10.4515 64.9561 10.7539C64.2161 11.0563 63.562 11.5084 63.0439 12.0757C62.3431 12.9834 62.2393 13.5257 62.2393 15.8835V25.4086C62.2393 27.7664 62.3431 28.3086 63.0439 29.2281C63.5785 29.7798 64.2364 30.2217 64.9738 30.5243C65.7111 30.827 66.5109 30.9836 67.32 30.9836C68.1292 30.9836 68.929 30.827 69.6663 30.5243C70.4036 30.2217 71.0615 29.7798 71.5962 29.2281C72.284 28.3086 72.4008 27.7664 72.4008 25.4086V15.8835C72.4008 13.5257 72.284 12.9953 71.5832 12.064C71.0644 11.4981 70.4099 11.0477 69.6698 10.7473C68.9297 10.4469 68.1236 10.3045 67.3135 10.331Z" fill="#5C2945"/>
<path d="M77.8055 14.7859C77.8055 13.6073 78.2462 13.6073 78.7517 13.6073C79.2572 13.6073 79.6978 13.6898 79.6978 14.7859V26.5714C79.6978 27.75 79.2442 27.75 78.7517 27.75C78.2592 27.75 77.8055 27.6557 77.8055 26.5714V14.7859ZM78.7517 10.3309C77.9395 10.3049 77.1316 10.4486 76.3901 10.751C75.6486 11.0534 74.9933 11.5063 74.4745 12.0751C73.7876 12.9826 73.6709 13.5248 73.6709 15.8819V25.4047C73.6709 27.7618 73.7876 28.3039 74.4875 29.2232C74.997 29.7995 75.6484 30.2587 76.3892 30.5637C77.1299 30.8688 77.9392 31.0111 78.7517 30.9792C79.5652 31.0056 80.3743 30.8608 81.1162 30.5563C81.8581 30.2517 82.5126 29.7955 83.0288 29.2232C83.7158 28.3039 83.8324 27.7618 83.8324 25.4047V15.8819C83.8324 13.5248 83.7158 12.9945 83.0159 12.0634C82.4965 11.4991 81.8426 11.0497 81.1037 10.7495C80.3648 10.4493 79.5605 10.3062 78.7517 10.3309Z" fill="#5C2945"/>
<path d="M89.2741 14.639C90.5859 14.639 90.8613 14.9714 90.9925 15.2923C91.1355 15.9997 91.2013 16.7174 91.1893 17.4357C91.2045 18.1578 91.1386 18.8796 90.9925 19.5905C90.8613 19.9114 90.5596 20.2553 89.2741 20.2553V14.639ZM88.6706 11.4984H85.1025V30.9837H89.2741V23.3386C90.1085 23.3996 90.9485 23.3133 91.744 23.0849C92.5395 22.8565 93.2743 22.4906 93.9047 22.009C94.9673 21.0805 95.2165 20.0719 95.2165 17.3554C95.3989 15.9382 95.0539 14.5074 94.2327 13.275C93.1439 11.8652 91.937 11.4755 88.5919 11.4755" fill="#5C2945"/>
<path d="M101.172 22.3464H104.806V19.2077H101.172V14.6142H106.376V11.4755H96.5342V30.9837H106.696V27.8449H101.172V22.3464Z" fill="#5C2945"/>
<path d="M113.625 16.5705C113.716 17.3929 113.654 18.2239 113.442 19.0263C113.32 19.3476 113.041 19.6689 111.872 19.6689V14.6197C113.211 14.6197 113.625 14.8837 113.625 16.5705ZM115.913 21.746C117.129 20.3804 117.434 19.4509 117.434 17.0755C117.521 15.7824 117.203 14.4936 116.521 13.3689C115.584 11.9575 114.294 11.4755 111.385 11.4755H107.966V30.9837H111.848V22.9509H112.213L113.99 30.9837H118.127L115.913 21.746Z" fill="#5C2945"/>
<path d="M142.262 11.4755H138.451V30.9837H142.262V11.4755Z" fill="#5C6B78"/>
<path d="M148.884 27.8624V14.6197C150.418 14.6197 150.782 14.9296 150.782 16.1689V26.3132C150.782 27.5869 150.444 27.8624 148.884 27.8624ZM153.342 12.623C152.276 11.7623 151.093 11.4755 148.702 11.4755H144.802V30.9837H148.702C151.106 30.9837 152.276 30.6968 153.342 29.8361C153.891 29.3845 154.32 28.8314 154.599 28.2165C154.877 27.6016 154.999 26.9399 154.954 26.2788V16.1345C154.998 15.4751 154.876 14.8154 154.597 14.2025C154.319 13.5895 153.89 13.0384 153.342 12.5885" fill="#5C6B78"/>
<path d="M133.456 18.1882L136.575 11.4755H132.335L129.873 16.9511V11.4755H125.762V20.1126C126.239 20.1126 126.729 20.4448 126.729 21.1894C126.744 21.4876 126.659 21.7831 126.485 22.0382C126.31 22.2933 126.054 22.4963 125.749 22.6213V30.9493H129.86V24.878L130.724 22.965L132.902 30.9837H137.181L133.456 18.1882Z" fill="#5C6B78"/>
<path d="M121.097 19.7887C120.939 19.6813 120.815 19.5492 120.732 19.4014C120.65 19.2537 120.611 19.0941 120.619 18.9338C120.619 17.9365 122.067 17.2131 123.761 17.2131C124.905 17.2131 125.832 17.542 125.832 17.7283C125.772 17.9558 125.675 18.1767 125.542 18.3858C125.296 18.9119 125.209 19.0215 124.92 19.0215C124.268 19.0215 124.253 18.0461 123.109 18.0461C122.708 18.0528 122.322 18.1664 122.021 18.3668C121.719 18.5672 121.52 18.8417 121.459 19.142C121.459 19.416 121.603 19.6243 121.763 19.6243C122.112 19.5534 122.472 19.5166 122.834 19.5147C123.457 19.5147 123.718 19.6681 123.718 19.8873C123.718 20.1065 123.428 20.3476 122.834 20.3476C122.461 20.3205 122.092 20.2655 121.734 20.1832C121.401 20.1832 120.865 20.7093 120.865 21.2792C120.85 21.4946 120.898 21.7098 121.005 21.9098C121.111 22.1098 121.275 22.2898 121.483 22.437C121.691 22.5842 121.94 22.6952 122.211 22.7621C122.481 22.8291 122.768 22.8503 123.051 22.8245C123.978 22.8245 124.76 22.419 124.76 21.8929C124.76 21.3669 124.63 21.4436 124.181 21.4436C123.732 21.4436 123.674 21.7176 123.37 21.7176C123.066 21.7176 123.124 21.6189 123.124 21.4326C123.124 20.8299 123.66 20.4024 125.238 20.4024C126.817 20.4024 126.223 19.8763 126.686 19.8763C126.874 19.8763 127.019 20.0627 127.019 20.3915C127.019 21.1696 126.281 21.4107 125.267 21.4874C125.278 21.5676 125.278 21.6483 125.267 21.7285C125.267 23.1752 123.413 24.0848 121.343 24.0848C120.948 24.1182 120.549 24.0898 120.17 24.0016C119.791 23.9133 119.44 23.767 119.138 23.5718C118.837 23.3765 118.592 23.1365 118.418 22.8665C118.244 22.5966 118.145 22.3025 118.128 22.0025C118.128 20.9065 119.359 20.0736 121.024 19.712" fill="#5C6B78"/>
</svg>
