<?xml version="1.0" encoding="utf-8"?>
<!-- Generator: Adobe Illustrator 25.2.0, SVG Export Plug-In . SVG Version: 6.00 Build 0)  -->
<svg version="1.1" id="Layer_1" xmlns="http://www.w3.org/2000/svg" xmlns:xlink="http://www.w3.org/1999/xlink" x="0px" y="0px"
	 viewBox="0 0 50 50" style="enable-background:new 0 0 50 50;" xml:space="preserve">
<style type="text/css">
	.st0{fill:none;stroke:#000000;stroke-miterlimit:10;}
</style>
<g>
	<path class="st0" d="M35,18.1c0,1.8-0.5,3.8-1.2,5.7c-1,2.8-2.4,5.3-4.1,7.7c-1,1.6-2.2,3-3.6,4.4c-1.5,1.4-3.1,2.7-5.1,3.4
		c-1.1,0.4-2.2,0.6-3.4,0.4c-0.3-0.1-0.7-0.2-1-0.3c-0.8-0.5-1.7-1-2.5-1.4c-0.6-0.4-0.8-1-0.5-1.6c1.2-2,2.4-4,3.6-6
		c0.4-0.6,1-0.7,1.6-0.4c0.8,0.5,1.7,1,2.5,1.5c0.7,0.4,1.1,0.4,1.7-0.1c0.5-0.5,1.1-1.1,1.5-1.7c1-1.6,2-3.3,2.9-4.9
		c0.5-0.8,0.8-1.8,1.2-2.7c0-0.1,0-0.1,0.1-0.2c0.3-1.1,0.2-1.4-0.8-2c-0.7-0.4-1.5-0.9-2.2-1.3c-0.7-0.4-0.9-1-0.5-1.7
		c1.1-1.9,2.2-3.8,3.3-5.7c0.2-0.4,0.6-0.7,1.1-0.6c0.2,0,0.3,0.1,0.5,0.1c0.9,0.5,1.8,1.1,2.7,1.6c0.6,0.4,1,0.9,1.2,1.5
		C34.7,14.9,35,16.1,35,18.1z"/>
</g>
</svg>
