<svg width="49" height="50" viewBox="0 0 49 50" fill="none" xmlns="http://www.w3.org/2000/svg">
<g clip-path="url(#clip0_1885_1186)">
<path d="M24.3879 9.41626C33.3804 9.41626 40.4896 15.9605 40.725 24.5293C40.9133 31.4031 36.4877 37.0057 29.661 37.7119C24.9058 38.2298 21.4218 40.2072 19.3032 44.3503C17.467 48.0227 14.1243 49.1055 10.5932 49.9059C8.70995 50.3296 6.82671 49.5293 6.40298 47.7402C5.79093 45.339 5.32012 42.7025 6.92087 40.3485C8.05082 38.6535 9.22784 36.9586 10.5461 35.452C12.241 33.4746 12.806 31.2148 12.4764 28.6724C12.241 26.5537 11.9585 24.4822 11.8644 22.3635C11.5819 14.2185 16.2429 9.41626 24.3879 9.41626ZM17.5141 40.4897C17.6553 40.7251 17.7495 40.9134 17.8907 41.1488C18.4086 41.0076 19.209 41.0076 19.4444 40.678C21.9397 37.0999 25.7533 36.4407 29.7081 35.7345C33.757 35.0283 36.6761 32.6743 38.0885 28.6724C39.8305 23.6818 38.2297 18.4087 33.8512 14.7835C29.1902 10.8758 23.1638 10.2637 18.0791 13.1827C15.2542 14.7835 13.6535 17.1375 13.8418 20.4803C14.1243 24.8117 14.4067 29.1432 14.7363 33.6159C15.8663 31.5914 16.9962 29.5669 18.1732 27.5895C19.0207 26.2242 19.7269 25.0001 18.4557 23.3993C18.032 22.8343 17.9849 21.7515 18.1732 20.9511C18.5499 19.0208 20.4802 17.42 21.7514 17.985C23.6817 18.8325 23.0697 20.6215 22.5518 21.8456C21.516 24.2468 22.4105 25.4709 24.6233 26.3654C25.4237 25.3767 26.177 24.2468 27.1186 23.3522C28.9077 21.7515 31.2147 22.5048 31.6855 24.7176C32.3917 27.8249 29.8493 30.5085 26.6478 29.9906C26.0358 29.8965 25.0941 29.8965 24.8116 30.2731C22.3164 33.5688 19.9152 37.0528 17.5141 40.4897ZM10.1224 38.7948C9.55741 40.6309 8.3333 42.42 8.70995 43.8325C9.18076 45.7157 11.1582 46.8456 13.3239 46.7044C15.5367 46.5631 16.2429 44.7741 17.0433 43.2204C14.8305 41.808 12.8531 40.4897 10.1224 38.7948ZM23.4934 28.2486C22.5047 27.5424 21.7514 27.0245 21.0452 26.5067C18.8324 30.5085 16.7608 34.3221 14.6892 38.1357C14.5009 38.4652 14.6892 38.936 14.6892 39.3127C15.113 39.1714 15.7721 39.2185 16.0075 38.936C18.4557 35.4991 20.9039 31.968 23.4934 28.2486ZM26.5066 27.4012C26.6478 27.6366 26.789 27.872 26.8832 28.0603C27.6365 27.7308 28.5781 27.5424 29.096 26.9775C29.4256 26.6479 29.0489 25.7063 29.0019 25.0001C28.7664 24.953 28.531 24.953 28.2956 24.9059C27.7307 25.7534 27.1186 26.6008 26.5066 27.4012Z" fill="#7B3D5D"/>
<path d="M9.13368 4.09595C10.2165 5.6967 11.2994 7.25037 12.3352 8.89821C12.3823 8.99237 11.2994 9.93399 11.2052 9.88691C9.8399 8.75696 8.52163 7.62702 7.29753 6.35583C7.15628 6.21459 7.58001 5.4613 7.76834 4.99049C8.19207 4.66092 8.66287 4.37843 9.13368 4.09595Z" fill="#7B3D5D"/>
<path d="M1.88321 34.6515C1.4124 34.322 0.800346 33.8983 0.188293 33.4274C0.847427 33.0979 1.50656 32.6741 2.21278 32.4858C3.20148 32.2033 4.19018 31.9679 5.17888 31.9209C5.60261 31.8738 6.07342 32.2975 6.49715 32.5329C6.21466 32.9566 6.02634 33.6158 5.64969 33.7099C4.56682 34.0866 3.43688 34.2749 1.88321 34.6515Z" fill="#7B3D5D"/>
<path d="M3.24862 20.0094C2.307 19.7269 1.3183 19.5386 0.423759 19.1148C0.141273 18.9736 -0.0941315 18.2674 3.04803e-05 17.9849C0.0941924 17.7024 0.706245 17.4199 1.08289 17.4199C2.16576 17.467 3.24862 17.6082 4.2844 17.8437C4.89645 17.9849 5.46142 18.4557 6.0264 18.7853C5.41434 19.1148 4.84937 19.4915 4.23732 19.774C4.00191 19.8681 3.62527 19.774 3.2957 19.774C3.2957 19.8681 3.24862 19.9623 3.24862 20.0094Z" fill="#7B3D5D"/>
<path d="M44.6328 20.0564C45.9981 20.386 47.0339 20.4801 47.9755 20.8568C48.3521 20.998 48.4934 21.6572 48.7759 22.0809C48.3521 22.3163 47.9284 22.6929 47.5047 22.6929C46.5631 22.6459 45.6215 22.4575 44.774 22.175C44.1619 21.9396 43.6911 21.4217 43.1262 21.0451C43.6441 20.6685 44.2561 20.2918 44.6328 20.0564Z" fill="#7B3D5D"/>
<path d="M20.2919 0.423714C20.9981 0.23539 22.0339 -0.141258 22.128 -1.50036e-05C22.8813 1.22409 23.5405 2.49528 24.0113 3.86063C24.1054 4.14311 23.4934 4.75516 23.2109 5.17889C22.5047 4.00187 21.7514 2.77776 20.2919 0.423714Z" fill="#7B3D5D"/>
<path d="M43.2674 33.0508C44.5386 34.1807 45.5744 35.0753 46.5631 35.9698C46.2335 36.2994 45.6215 36.9585 45.5273 36.9114C44.4445 36.1581 43.4087 35.3107 42.42 34.4632C42.3729 34.369 42.8908 33.7099 43.2674 33.0508Z" fill="#7B3D5D"/>
<path d="M39.2185 4.56693C38.0885 5.74396 37.194 6.73266 36.2053 7.67428C36.1111 7.76844 35.452 7.20347 35.0283 6.96806C35.9699 5.83812 36.9115 4.6611 37.9002 3.57823C37.9002 3.48407 38.6064 4.04904 39.2185 4.56693Z" fill="#7B3D5D"/>
<path d="M28.1544 43.4088C28.8136 42.7026 29.1902 42.373 29.5198 41.9963C30.0847 42.985 30.791 43.9737 31.2147 45.0095C31.3088 45.2449 30.791 45.8099 30.5085 46.2336C29.8493 45.3391 29.096 44.4916 28.1544 43.4088Z" fill="#7B3D5D"/>
</g>
<defs>
<clipPath id="clip0_1885_1186">
<rect width="48.7288" height="50" fill="white"/>
</clipPath>
</defs>
</svg>
