<svg xmlns="http://www.w3.org/2000/svg" class="tcb-icon" viewBox="0 0 26 28" data-name="quote-right">
<path d="M 12 5 v 11 c 0 4.406 -3.594 8 -8 8 h -1 c -0.547 0 -1 -0.453 -1 -1 v -2 c 0 -0.547 0.453 -1 1 -1 h 1 c 2.203 0 4 -1.797 4 -4 v -0.5 c 0 -0.828 -0.672 -1.5 -1.5 -1.5 h -3.5 c -1.656 0 -3 -1.344 -3 -3 v -6 c 0 -1.656 1.344 -3 3 -3 h 6 c 1.656 0 3 1.344 3 3 Z M 26 5 v 11 c 0 4.406 -3.594 8 -8 8 h -1 c -0.547 0 -1 -0.453 -1 -1 v -2 c 0 -0.547 0.453 -1 1 -1 h 1 c 2.203 0 4 -1.797 4 -4 v -0.5 c 0 -0.828 -0.672 -1.5 -1.5 -1.5 h -3.5 c -1.656 0 -3 -1.344 -3 -3 v -6 c 0 -1.656 1.344 -3 3 -3 h 6 c 1.656 0 3 1.344 3 3 Z"></path>
</svg>