<svg width="930" height="48" fill="none" xmlns="http://www.w3.org/2000/svg"><circle cx="452" cy="24" r="24" fill="#C74E70"/><circle cx="906" cy="24" r="24" fill="#C74E70"/><path fill-rule="evenodd" clip-rule="evenodd" d="M47.814 27C46.338 38.839 36.24 48 24 48 10.745 48 0 37.255 0 24S10.745 0 24 0c12.239 0 22.338 9.161 23.814 21H906v6H47.814Z" fill="url(#a)"/><mask id="b" fill="#fff"><path fill-rule="evenodd" clip-rule="evenodd" d="M47.814 27C46.338 38.839 36.24 48 24 48 10.745 48 0 37.255 0 24S10.745 0 24 0c12.239 0 22.338 9.161 23.814 21h380.372C429.662 9.161 439.761 0 452 0s22.338 9.161 23.814 21h406.372C883.662 9.161 893.761 0 906 0c13.255 0 24 10.745 24 24s-10.745 24-24 24c-12.239 0-22.338-9.161-23.814-21H475.814C474.338 38.839 464.239 48 452 48s-22.338-9.161-23.814-21H47.814Z"/></mask><path d="M47.814 27v-1h-.883l-.109.876.992.124Zm0-6-.992.124.11.876h.882v-1Zm380.372 0v1h.883l.109-.876-.992-.124Zm47.628 0-.992.124.109.876h.883v-1Zm406.372 0v1h.883l.109-.876-.992-.124Zm0 6 .992-.124-.109-.876h-.883v1Zm-406.372 0v-1h-.883l-.109.876.992.124Zm-47.628 0 .992-.124-.109-.876h-.883v1ZM24 49c12.75 0 23.269-9.543 24.807-21.876l-1.985-.248C45.407 38.221 35.728 47 24 47v2ZM-1 24c0 13.807 11.193 25 25 25v-2C11.297 47 1 36.703 1 24h-2ZM24-1C10.193-1-1 10.193-1 24h2C1 11.297 11.297 1 24 1v-2Zm24.807 21.876C47.269 8.543 36.75-1 24-1v2c11.728 0 21.407 8.78 22.822 20.124l1.985-.248ZM47.814 22h380.372v-2H47.814v2Zm381.364-.876C430.593 9.779 440.272 1 452 1v-2c-12.75 0-23.269 9.543-24.807 21.876l1.985.248ZM452 1c11.728 0 21.407 8.78 22.822 20.124l1.985-.248C475.269 8.543 464.75-1 452-1v2Zm23.814 21h406.372v-2H475.814v2Zm407.364-.876C884.593 9.779 894.272 1 906 1v-2c-12.75 0-23.269 9.543-24.807 21.876l1.985.248ZM906 1c12.703 0 23 10.297 23 23h2c0-13.807-11.193-25-25-25v2Zm23 23c0 12.703-10.297 23-23 23v2c13.807 0 25-11.193 25-25h-2Zm-23 23c-11.728 0-21.407-8.78-22.822-20.124l-1.985.248C882.731 39.457 893.25 49 906 49v-2Zm-23.814-21H475.814v2h406.372v-2Zm-407.364.876C473.407 38.221 463.728 47 452 47v2c12.75 0 23.269-9.543 24.807-21.876l-1.985-.248ZM452 47c-11.728 0-21.407-8.78-22.822-20.124l-1.985.248C428.731 39.457 439.25 49 452 49v-2Zm-23.814-21H47.814v2h380.372v-2Z" fill="#C74E70" fill-opacity=".7" mask="url(#b)"/><path d="m17.36 18.472 6.12-4.272h2.88V31h-3.48V18.28l-3.864 2.52-1.656-2.328Zm428.864 9.864 5.808-5.736c.704-.688 1.192-1.272 1.464-1.752s.408-1.008.408-1.584a2.04 2.04 0 0 0-.672-1.56c-.432-.432-.992-.648-1.68-.648-.608 0-1.168.184-1.68.552-.512.352-.872.704-1.08 1.056l-.312.528-2.52-1.632c.032-.096.088-.224.168-.384.08-.16.28-.448.6-.864.32-.416.68-.784 1.08-1.104.416-.32.984-.608 1.704-.864a7.183 7.183 0 0 1 2.376-.384c1.584 0 2.896.472 3.936 1.416 1.04.928 1.56 2.088 1.56 3.48 0 1.088-.232 2.056-.696 2.904-.464.832-1.24 1.768-2.328 2.808L450.808 28h6.456v3h-11.04v-2.664Zm456.928-7.296h1.68c.784 0 1.384-.184 1.8-.552.432-.368.648-.864.648-1.488 0-.608-.216-1.096-.648-1.464-.416-.368-.96-.552-1.632-.552-.56 0-1.048.12-1.464.36-.4.24-.664.48-.792.72l-.192.36-2.52-1.464c.032-.08.08-.184.144-.312.08-.144.264-.384.552-.72a5.84 5.84 0 0 1 .984-.912c.368-.272.872-.512 1.512-.72a6.205 6.205 0 0 1 2.064-.336c1.536 0 2.832.424 3.888 1.272 1.056.832 1.584 1.92 1.584 3.264 0 .8-.216 1.528-.648 2.184-.416.64-.992 1.16-1.728 1.56.896.4 1.592.952 2.088 1.656.512.704.768 1.52.768 2.448 0 1.456-.576 2.64-1.728 3.552-1.136.896-2.592 1.344-4.368 1.344a7.17 7.17 0 0 1-2.232-.336c-.688-.224-1.24-.488-1.656-.792-.4-.32-.752-.632-1.056-.936-.288-.32-.488-.592-.6-.816l-.168-.336 2.592-1.56c.016.048.048.112.096.192s.16.224.336.432c.192.208.392.392.6.552.208.144.496.28.864.408.368.128.752.192 1.152.192.8 0 1.448-.216 1.944-.648.496-.448.744-.984.744-1.608a2.07 2.07 0 0 0-.768-1.656c-.512-.432-1.24-.648-2.184-.648h-1.656v-2.64Z" fill="#fff"/><defs><linearGradient id="a" x1="912.917" y1="23.999" x2="44.002" y2="20.602" gradientUnits="userSpaceOnUse"><stop stop-color="#C74E70"/><stop offset="1" stop-color="#C74E70" stop-opacity=".7"/></linearGradient></defs></svg>