<svg width="523" height="35" viewBox="0 0 523 35" fill="none" xmlns="http://www.w3.org/2000/svg">
<path d="M36 17.5L504 17.117" stroke="#5C6B78"/>
<path d="M35.7412 14.5264C35.8552 15.1742 35.9327 15.8341 35.9713 16.5042L35.4722 16.533C35.4906 16.853 35.5 17.1754 35.5 17.5C35.5 17.8246 35.4906 18.147 35.4722 18.467L35.9713 18.4958C35.9327 19.1659 35.8552 19.8258 35.7412 20.4736L35.2488 20.3869C35.1362 21.0265 34.9868 21.6538 34.8028 22.2667L35.2817 22.4105C35.0899 23.0496 34.8616 23.6735 34.5992 24.2801L34.1403 24.0816C33.8836 24.675 33.5931 25.2513 33.2713 25.8083L33.7042 26.0585C33.3716 26.6341 33.0066 27.1895 32.6114 27.7225L32.2098 27.4247C31.8256 27.9427 31.4122 28.439 30.9717 28.9112L31.3373 29.2522C30.8851 29.737 30.4054 30.197 29.9004 30.63L29.575 30.2504C29.0862 30.6694 28.5732 31.0624 28.0381 31.427L28.3197 31.8402C27.773 32.2127 27.204 32.5565 26.6151 32.8692L26.3806 32.4276C25.8133 32.7288 25.2269 33.0004 24.6237 33.2402L24.8084 33.7048C24.1955 33.9485 23.5657 34.1602 22.9212 34.3379L22.7883 33.8559C22.1708 34.0262 21.5394 34.1643 20.8961 34.2684L20.9759 34.762C20.327 34.8669 19.6663 34.9381 18.9958 34.9737L18.9694 34.4744C18.6485 34.4914 18.3253 34.5 18 34.5C17.6747 34.5 17.3515 34.4914 17.0306 34.4744L17.0042 34.9737C16.3337 34.9381 15.673 34.8669 15.0241 34.762L15.1039 34.2684C14.4606 34.1643 13.8292 34.0262 13.2117 33.8559L13.0788 34.3379C12.4343 34.1602 11.8045 33.9485 11.1916 33.7048L11.3763 33.2402C10.7731 33.0004 10.1867 32.7288 9.61938 32.4276L9.3849 32.8692C8.79597 32.5565 8.227 32.2127 7.6803 31.8402L7.96187 31.427C7.42683 31.0624 6.91378 30.6694 6.42503 30.2504L6.09958 30.63C5.59463 30.197 5.11486 29.737 4.66265 29.2522L5.02828 28.9112C4.58783 28.439 4.17437 27.9427 3.79024 27.4247L3.3886 27.7225C2.99344 27.1895 2.62836 26.6341 2.29578 26.0585L2.72871 25.8083C2.40686 25.2513 2.11641 24.675 1.85968 24.0816L1.40079 24.2801C1.13835 23.6735 0.910063 23.0496 0.718264 22.4105L1.19716 22.2667C1.0132 21.6538 0.863832 21.0265 0.751234 20.3869L0.258808 20.4736C0.144751 19.8258 0.0673178 19.1659 0.0286554 18.4958L0.527825 18.467C0.50936 18.147 0.5 17.8246 0.5 17.5C0.5 17.1754 0.50936 16.853 0.527825 16.533L0.0286552 16.5042C0.0673175 15.8341 0.14475 15.1742 0.258807 14.5264L0.751233 14.6131C0.863832 13.9735 1.0132 13.3462 1.19716 12.7333L0.718263 12.5895C0.910063 11.9504 1.13835 11.3265 1.40079 10.7199L1.85968 10.9184C2.11641 10.325 2.40686 9.74869 2.72871 9.19166L2.29578 8.94151C2.62836 8.36593 2.99344 7.81049 3.3886 7.27754L3.79024 7.57535C4.17437 7.05729 4.58783 6.56101 5.02828 6.08882L4.66265 5.74777C5.11486 5.26298 5.59464 4.80295 6.09959 4.37003L6.42503 4.74962C6.91378 4.33058 7.42683 3.93762 7.96187 3.573L7.6803 3.15982C8.227 2.78727 8.79598 2.44351 9.3849 2.13081L9.61938 2.57242C10.1867 2.27121 10.7731 1.99962 11.3763 1.75981L11.1916 1.29518C11.8045 1.05153 12.4343 0.83978 13.0788 0.662072L13.2117 1.14409C13.8292 0.973843 14.4606 0.835696 15.1039 0.731635L15.0241 0.23805C15.673 0.133084 16.3337 0.0618709 17.0042 0.0263284L17.0306 0.525627C17.3515 0.508618 17.6747 0.5 18 0.5C18.3253 0.5 18.6485 0.508618 18.9694 0.525627L18.9958 0.0263283C19.6663 0.0618707 20.327 0.133084 20.9759 0.23805L20.8961 0.731635C21.5394 0.835696 22.1708 0.973843 22.7883 1.14409L22.9212 0.662072C23.5657 0.83978 24.1955 1.05153 24.8084 1.29518L24.6237 1.75981C25.2269 1.99962 25.8133 2.27121 26.3806 2.57242L26.6151 2.13081C27.204 2.44351 27.773 2.78727 28.3197 3.15983L28.0381 3.57301C28.5732 3.93762 29.0862 4.33058 29.575 4.74962L29.9004 4.37003C30.4054 4.80296 30.8851 5.26298 31.3373 5.74777L30.9717 6.08882C31.4122 6.56101 31.8256 7.05729 32.2098 7.57535L32.6114 7.27754C33.0066 7.81049 33.3716 8.36593 33.7042 8.94151L33.2713 9.19166C33.5931 9.74869 33.8836 10.325 34.1403 10.9184L34.5992 10.7199C34.8616 11.3265 35.0899 11.9504 35.2817 12.5895L34.8028 12.7333C34.9868 13.3462 35.1362 13.9735 35.2488 14.6131L35.7412 14.5264Z" fill="#90DAE5" fill-opacity="0.25" stroke="#5C2945" stroke-dasharray="2 2"/>
<path d="M17.48 9.2H20.36V26H16.88V13.28L13.04 15.8L11.36 13.472L17.48 9.2Z" fill="#5C2945"/>
<ellipse cx="262" cy="17.5" rx="18" ry="17.5" fill="#C4C4C4"/>
<path d="M261.12 26.24C260.32 26.24 259.576 26.128 258.888 25.904C258.2 25.68 257.648 25.416 257.232 25.112C256.816 24.792 256.464 24.48 256.176 24.176C255.888 23.856 255.688 23.584 255.576 23.36L255.384 23.024L258 21.44C258.016 21.488 258.048 21.552 258.096 21.632C258.144 21.712 258.256 21.856 258.432 22.064C258.608 22.272 258.8 22.456 259.008 22.616C259.232 22.76 259.52 22.896 259.872 23.024C260.24 23.152 260.632 23.216 261.048 23.216C261.848 23.216 262.488 23 262.968 22.568C263.464 22.12 263.712 21.584 263.712 20.96C263.712 20.288 263.456 19.744 262.944 19.328C262.432 18.896 261.704 18.68 260.76 18.68H259.104V16.04H260.784C261.568 16.04 262.168 15.856 262.584 15.488C263.016 15.12 263.232 14.624 263.232 14C263.232 13.392 263.016 12.904 262.584 12.536C262.168 12.168 261.632 11.984 260.976 11.984C260.416 11.984 259.928 12.104 259.512 12.344C259.112 12.584 258.848 12.824 258.72 13.064L258.528 13.424L255.984 11.96C256.016 11.88 256.064 11.776 256.128 11.648C256.208 11.504 256.392 11.264 256.68 10.928C256.984 10.576 257.312 10.272 257.664 10.016C258.032 9.744 258.536 9.504 259.176 9.296C259.816 9.072 260.504 8.96 261.24 8.96C262.792 8.96 264.096 9.384 265.152 10.232C266.208 11.064 266.736 12.152 266.736 13.496C266.736 14.296 266.52 15.024 266.088 15.68C265.672 16.32 265.096 16.84 264.36 17.24C265.256 17.64 265.952 18.192 266.448 18.896C266.96 19.6 267.216 20.416 267.216 21.344C267.216 22.8 266.64 23.984 265.488 24.896C264.336 25.792 262.88 26.24 261.12 26.24Z" fill="white"/>
<circle cx="505.5" cy="17.5" r="17.5" fill="#C4C4C4"/>
<path d="M500.896 9.2H511.216V12.2H503.992V15.704C504.808 15.128 505.704 14.84 506.68 14.84C508.264 14.84 509.552 15.36 510.544 16.4C511.552 17.44 512.056 18.72 512.056 20.24C512.056 21.984 511.472 23.424 510.304 24.56C509.152 25.68 507.664 26.24 505.84 26.24C505.104 26.24 504.4 26.136 503.728 25.928C503.072 25.72 502.536 25.464 502.12 25.16C501.72 24.856 501.36 24.552 501.04 24.248C500.736 23.944 500.52 23.688 500.392 23.48L500.2 23.168L502.816 21.32C502.848 21.368 502.888 21.432 502.936 21.512C502.984 21.592 503.096 21.728 503.272 21.92C503.448 22.112 503.64 22.288 503.848 22.448C504.072 22.592 504.352 22.728 504.688 22.856C505.04 22.984 505.408 23.048 505.792 23.048C506.624 23.048 507.288 22.792 507.784 22.28C508.296 21.768 508.552 21.12 508.552 20.336C508.552 19.648 508.312 19.064 507.832 18.584C507.368 18.104 506.76 17.864 506.008 17.864C505.544 17.864 505.136 17.968 504.784 18.176C504.432 18.368 504.2 18.544 504.088 18.704C503.976 18.848 503.904 18.96 503.872 19.04H500.896V9.2Z" fill="white"/>
<ellipse cx="384" cy="17.5" rx="18" ry="17.5" fill="#C4C4C4"/>
<path d="M385.28 26V22.28H377.768V19.448L385.184 9.2H388.592V19.544H390.992V22.28H388.592V26H385.28ZM380.696 19.544H385.28V13.28L380.696 19.544Z" fill="white"/>
<ellipse cx="18" cy="17.5" rx="18" ry="17.5" fill="#5C2945"/>
<path d="M10 17.5L15.3684 23L27 12" stroke="white" stroke-width="2"/>
<path d="M157.741 14.5264C157.855 15.1742 157.933 15.8341 157.971 16.5042L157.472 16.533C157.491 16.853 157.5 17.1754 157.5 17.5C157.5 17.8246 157.491 18.147 157.472 18.467L157.971 18.4958C157.933 19.1659 157.855 19.8258 157.741 20.4736L157.249 20.3869C157.136 21.0265 156.987 21.6538 156.803 22.2667L157.282 22.4105C157.09 23.0496 156.862 23.6735 156.599 24.2801L156.14 24.0816C155.884 24.675 155.593 25.2513 155.271 25.8083L155.704 26.0585C155.372 26.6341 155.007 27.1895 154.611 27.7225L154.21 27.4247C153.826 27.9427 153.412 28.439 152.972 28.9112L153.337 29.2522C152.885 29.737 152.405 30.197 151.9 30.63L151.575 30.2504C151.086 30.6694 150.573 31.0624 150.038 31.427L150.32 31.8402C149.773 32.2127 149.204 32.5565 148.615 32.8692L148.381 32.4276C147.813 32.7288 147.227 33.0004 146.624 33.2402L146.808 33.7048C146.196 33.9485 145.566 34.1602 144.921 34.3379L144.788 33.8559C144.171 34.0262 143.539 34.1643 142.896 34.2684L142.976 34.762C142.327 34.8669 141.666 34.9381 140.996 34.9737L140.969 34.4744C140.649 34.4914 140.325 34.5 140 34.5C139.675 34.5 139.351 34.4914 139.031 34.4744L139.004 34.9737C138.334 34.9381 137.673 34.8669 137.024 34.762L137.104 34.2684C136.461 34.1643 135.829 34.0262 135.212 33.8559L135.079 34.3379C134.434 34.1602 133.804 33.9485 133.192 33.7048L133.376 33.2402C132.773 33.0004 132.187 32.7288 131.619 32.4276L131.385 32.8692C130.796 32.5565 130.227 32.2127 129.68 31.8402L129.962 31.427C129.427 31.0624 128.914 30.6694 128.425 30.2504L128.1 30.63C127.595 30.197 127.115 29.737 126.663 29.2522L127.028 28.9112C126.588 28.439 126.174 27.9427 125.79 27.4247L125.389 27.7225C124.993 27.1895 124.628 26.6341 124.296 26.0585L124.729 25.8083C124.407 25.2513 124.116 24.675 123.86 24.0816L123.401 24.2801C123.138 23.6735 122.91 23.0496 122.718 22.4105L123.197 22.2667C123.013 21.6538 122.864 21.0265 122.751 20.3869L122.259 20.4736C122.145 19.8258 122.067 19.1659 122.029 18.4958L122.528 18.467C122.509 18.147 122.5 17.8246 122.5 17.5C122.5 17.1754 122.509 16.853 122.528 16.533L122.029 16.5042C122.067 15.8341 122.145 15.1742 122.259 14.5264L122.751 14.6131C122.864 13.9735 123.013 13.3462 123.197 12.7333L122.718 12.5895C122.91 11.9504 123.138 11.3265 123.401 10.7199L123.86 10.9184C124.116 10.325 124.407 9.74869 124.729 9.19166L124.296 8.94151C124.628 8.36593 124.993 7.81049 125.389 7.27754L125.79 7.57535C126.174 7.05729 126.588 6.56101 127.028 6.08882L126.663 5.74777C127.115 5.26298 127.595 4.80295 128.1 4.37003L128.425 4.74962C128.914 4.33058 129.427 3.93762 129.962 3.573L129.68 3.15982C130.227 2.78727 130.796 2.44351 131.385 2.13081L131.619 2.57242C132.187 2.27121 132.773 1.99962 133.376 1.75981L133.192 1.29518C133.804 1.05153 134.434 0.83978 135.079 0.662072L135.212 1.14409C135.829 0.973843 136.461 0.835696 137.104 0.731635L137.024 0.23805C137.673 0.133084 138.334 0.0618709 139.004 0.0263284L139.031 0.525627C139.351 0.508618 139.675 0.5 140 0.5C140.325 0.5 140.649 0.508618 140.969 0.525627L140.996 0.0263283C141.666 0.0618707 142.327 0.133084 142.976 0.23805L142.896 0.731635C143.539 0.835696 144.171 0.973843 144.788 1.14409L144.921 0.662072C145.566 0.83978 146.196 1.05153 146.808 1.29518L146.624 1.75981C147.227 1.99962 147.813 2.27121 148.381 2.57242L148.615 2.13081C149.204 2.44351 149.773 2.78727 150.32 3.15983L150.038 3.57301C150.573 3.93762 151.086 4.33058 151.575 4.74962L151.9 4.37003C152.405 4.80296 152.885 5.26298 153.337 5.74777L152.972 6.08882C153.412 6.56101 153.826 7.05729 154.21 7.57535L154.611 7.27754C155.007 7.81049 155.372 8.36593 155.704 8.94151L155.271 9.19166C155.593 9.74869 155.884 10.325 156.14 10.9184L156.599 10.7199C156.862 11.3265 157.09 11.9504 157.282 12.5895L156.803 12.7333C156.987 13.3462 157.136 13.9735 157.249 14.6131L157.741 14.5264Z" fill="#CFE1E4" stroke="#5C2945" stroke-dasharray="2 2"/>
<path d="M134.264 23.376L140.072 17.64C140.776 16.952 141.264 16.368 141.536 15.888C141.808 15.408 141.944 14.88 141.944 14.304C141.944 13.68 141.72 13.16 141.272 12.744C140.84 12.312 140.28 12.096 139.592 12.096C138.984 12.096 138.424 12.28 137.912 12.648C137.4 13 137.04 13.352 136.832 13.704L136.52 14.232L134 12.6C134.032 12.504 134.088 12.376 134.168 12.216C134.248 12.056 134.448 11.768 134.768 11.352C135.088 10.936 135.448 10.568 135.848 10.248C136.264 9.928 136.832 9.64 137.552 9.384C138.288 9.128 139.08 9 139.928 9C141.512 9 142.824 9.472 143.864 10.416C144.904 11.344 145.424 12.504 145.424 13.896C145.424 14.984 145.192 15.952 144.728 16.8C144.264 17.632 143.488 18.568 142.4 19.608L138.848 23.04H145.304V26.04H134.264V23.376Z" fill="#7B3D5D"/>
</svg>
