<svg width="523" height="35" viewBox="0 0 523 35" fill="none" xmlns="http://www.w3.org/2000/svg">
<path d="M36 17.5L504 17.117" stroke="#5C6B78"/>
<circle cx="505.5" cy="17.5" r="17.5" fill="#C4C4C4"/>
<path d="M500.896 9.2H511.216V12.2H503.992V15.704C504.808 15.128 505.704 14.84 506.68 14.84C508.264 14.84 509.552 15.36 510.544 16.4C511.552 17.44 512.056 18.72 512.056 20.24C512.056 21.984 511.472 23.424 510.304 24.56C509.152 25.68 507.664 26.24 505.84 26.24C505.104 26.24 504.4 26.136 503.728 25.928C503.072 25.72 502.536 25.464 502.12 25.16C501.72 24.856 501.36 24.552 501.04 24.248C500.736 23.944 500.52 23.688 500.392 23.48L500.2 23.168L502.816 21.32C502.848 21.368 502.888 21.432 502.936 21.512C502.984 21.592 503.096 21.728 503.272 21.92C503.448 22.112 503.64 22.288 503.848 22.448C504.072 22.592 504.352 22.728 504.688 22.856C505.04 22.984 505.408 23.048 505.792 23.048C506.624 23.048 507.288 22.792 507.784 22.28C508.296 21.768 508.552 21.12 508.552 20.336C508.552 19.648 508.312 19.064 507.832 18.584C507.368 18.104 506.76 17.864 506.008 17.864C505.544 17.864 505.136 17.968 504.784 18.176C504.432 18.368 504.2 18.544 504.088 18.704C503.976 18.848 503.904 18.96 503.872 19.04H500.896V9.2Z" fill="white"/>
<ellipse cx="384" cy="17.5" rx="18" ry="17.5" fill="#C4C4C4"/>
<path d="M385.28 26V22.28H377.768V19.448L385.184 9.2H388.592V19.544H390.992V22.28H388.592V26H385.28ZM380.696 19.544H385.28V13.28L380.696 19.544Z" fill="white"/>
<ellipse cx="18" cy="17.5" rx="18" ry="17.5" fill="#5C2945"/>
<path d="M10 17.5L15.3684 23L27 12" stroke="white" stroke-width="2"/>
<ellipse cx="140" cy="17.5" rx="18" ry="17.5" fill="#5C2945"/>
<path d="M132 17.5L137.368 23L149 12" stroke="white" stroke-width="2"/>
<path d="M279.741 14.5264C279.855 15.1742 279.933 15.8341 279.971 16.5042L279.472 16.533C279.491 16.853 279.5 17.1754 279.5 17.5C279.5 17.8246 279.491 18.147 279.472 18.467L279.971 18.4958C279.933 19.1659 279.855 19.8258 279.741 20.4736L279.249 20.3869C279.136 21.0265 278.987 21.6538 278.803 22.2667L279.282 22.4105C279.09 23.0496 278.862 23.6735 278.599 24.2801L278.14 24.0816C277.884 24.675 277.593 25.2513 277.271 25.8083L277.704 26.0585C277.372 26.6341 277.007 27.1895 276.611 27.7225L276.21 27.4247C275.826 27.9427 275.412 28.439 274.972 28.9112L275.337 29.2522C274.885 29.737 274.405 30.197 273.9 30.63L273.575 30.2504C273.086 30.6694 272.573 31.0624 272.038 31.427L272.32 31.8402C271.773 32.2127 271.204 32.5565 270.615 32.8692L270.381 32.4276C269.813 32.7288 269.227 33.0004 268.624 33.2402L268.808 33.7048C268.196 33.9485 267.566 34.1602 266.921 34.3379L266.788 33.8559C266.171 34.0262 265.539 34.1643 264.896 34.2684L264.976 34.762C264.327 34.8669 263.666 34.9381 262.996 34.9737L262.969 34.4744C262.649 34.4914 262.325 34.5 262 34.5C261.675 34.5 261.351 34.4914 261.031 34.4744L261.004 34.9737C260.334 34.9381 259.673 34.8669 259.024 34.762L259.104 34.2684C258.461 34.1643 257.829 34.0262 257.212 33.8559L257.079 34.3379C256.434 34.1602 255.804 33.9485 255.192 33.7048L255.376 33.2402C254.773 33.0004 254.187 32.7288 253.619 32.4276L253.385 32.8692C252.796 32.5565 252.227 32.2127 251.68 31.8402L251.962 31.427C251.427 31.0624 250.914 30.6694 250.425 30.2504L250.1 30.63C249.595 30.197 249.115 29.737 248.663 29.2522L249.028 28.9112C248.588 28.439 248.174 27.9427 247.79 27.4247L247.389 27.7225C246.993 27.1895 246.628 26.6341 246.296 26.0585L246.729 25.8083C246.407 25.2513 246.116 24.675 245.86 24.0816L245.401 24.2801C245.138 23.6735 244.91 23.0496 244.718 22.4105L245.197 22.2667C245.013 21.6538 244.864 21.0265 244.751 20.3869L244.259 20.4736C244.145 19.8258 244.067 19.1659 244.029 18.4958L244.528 18.467C244.509 18.147 244.5 17.8246 244.5 17.5C244.5 17.1754 244.509 16.853 244.528 16.533L244.029 16.5042C244.067 15.8341 244.145 15.1742 244.259 14.5264L244.751 14.6131C244.864 13.9735 245.013 13.3462 245.197 12.7333L244.718 12.5895C244.91 11.9504 245.138 11.3265 245.401 10.7199L245.86 10.9184C246.116 10.325 246.407 9.74869 246.729 9.19166L246.296 8.94151C246.628 8.36593 246.993 7.81049 247.389 7.27754L247.79 7.57535C248.174 7.05729 248.588 6.56101 249.028 6.08882L248.663 5.74777C249.115 5.26298 249.595 4.80295 250.1 4.37003L250.425 4.74962C250.914 4.33058 251.427 3.93762 251.962 3.573L251.68 3.15982C252.227 2.78727 252.796 2.44351 253.385 2.13081L253.619 2.57242C254.187 2.27121 254.773 1.99962 255.376 1.75981L255.192 1.29518C255.804 1.05153 256.434 0.83978 257.079 0.662072L257.212 1.14409C257.829 0.973843 258.461 0.835696 259.104 0.731635L259.024 0.23805C259.673 0.133084 260.334 0.0618709 261.004 0.0263284L261.031 0.525627C261.351 0.508618 261.675 0.5 262 0.5C262.325 0.5 262.649 0.508618 262.969 0.525627L262.996 0.0263283C263.666 0.0618707 264.327 0.133084 264.976 0.23805L264.896 0.731635C265.539 0.835696 266.171 0.973843 266.788 1.14409L266.921 0.662072C267.566 0.83978 268.196 1.05153 268.808 1.29518L268.624 1.75981C269.227 1.99962 269.813 2.27121 270.381 2.57242L270.615 2.13081C271.204 2.44351 271.773 2.78727 272.32 3.15983L272.038 3.57301C272.573 3.93762 273.086 4.33058 273.575 4.74962L273.9 4.37003C274.405 4.80296 274.885 5.26298 275.337 5.74777L274.972 6.08882C275.412 6.56101 275.826 7.05729 276.21 7.57535L276.611 7.27754C277.007 7.81049 277.372 8.36593 277.704 8.94151L277.271 9.19166C277.593 9.74869 277.884 10.325 278.14 10.9184L278.599 10.7199C278.862 11.3265 279.09 11.9504 279.282 12.5895L278.803 12.7333C278.987 13.3462 279.136 13.9735 279.249 14.6131L279.741 14.5264Z" fill="#CFE1E4" stroke="#5C2945" stroke-dasharray="2 2"/>
<path d="M259.72 16.08H261.4C262.184 16.08 262.784 15.896 263.2 15.528C263.632 15.16 263.848 14.664 263.848 14.04C263.848 13.432 263.632 12.944 263.2 12.576C262.784 12.208 262.24 12.024 261.568 12.024C261.008 12.024 260.52 12.144 260.104 12.384C259.704 12.624 259.44 12.864 259.312 13.104L259.12 13.464L256.6 12C256.632 11.92 256.68 11.816 256.744 11.688C256.824 11.544 257.008 11.304 257.296 10.968C257.6 10.616 257.928 10.312 258.28 10.056C258.648 9.784 259.152 9.544 259.792 9.336C260.432 9.112 261.12 9 261.856 9C263.392 9 264.688 9.424 265.744 10.272C266.8 11.104 267.328 12.192 267.328 13.536C267.328 14.336 267.112 15.064 266.68 15.72C266.264 16.36 265.688 16.88 264.952 17.28C265.848 17.68 266.544 18.232 267.04 18.936C267.552 19.64 267.808 20.456 267.808 21.384C267.808 22.84 267.232 24.024 266.08 24.936C264.944 25.832 263.488 26.28 261.712 26.28C260.912 26.28 260.168 26.168 259.48 25.944C258.792 25.72 258.24 25.456 257.824 25.152C257.424 24.832 257.072 24.52 256.768 24.216C256.48 23.896 256.28 23.624 256.168 23.4L256 23.064L258.592 21.504C258.608 21.552 258.64 21.616 258.688 21.696C258.736 21.776 258.848 21.92 259.024 22.128C259.216 22.336 259.416 22.52 259.624 22.68C259.832 22.824 260.12 22.96 260.488 23.088C260.856 23.216 261.24 23.28 261.64 23.28C262.44 23.28 263.088 23.064 263.584 22.632C264.08 22.184 264.328 21.648 264.328 21.024C264.328 20.352 264.072 19.8 263.56 19.368C263.048 18.936 262.32 18.72 261.376 18.72H259.72V16.08Z" fill="#7B3D5D"/>
</svg>
