<svg width="523" height="35" viewBox="0 0 523 35" fill="none" xmlns="http://www.w3.org/2000/svg">
<path d="M36 17L504 16.617" stroke="#5C6B78"/>
<circle cx="505.5" cy="17.5" r="17.5" fill="#C4C4C4"/>
<path d="M500.896 9.2H511.216V12.2H503.992V15.704C504.808 15.128 505.704 14.84 506.68 14.84C508.264 14.84 509.552 15.36 510.544 16.4C511.552 17.44 512.056 18.72 512.056 20.24C512.056 21.984 511.472 23.424 510.304 24.56C509.152 25.68 507.664 26.24 505.84 26.24C505.104 26.24 504.4 26.136 503.728 25.928C503.072 25.72 502.536 25.464 502.12 25.16C501.72 24.856 501.36 24.552 501.04 24.248C500.736 23.944 500.52 23.688 500.392 23.48L500.2 23.168L502.816 21.32C502.848 21.368 502.888 21.432 502.936 21.512C502.984 21.592 503.096 21.728 503.272 21.92C503.448 22.112 503.64 22.288 503.848 22.448C504.072 22.592 504.352 22.728 504.688 22.856C505.04 22.984 505.408 23.048 505.792 23.048C506.624 23.048 507.288 22.792 507.784 22.28C508.296 21.768 508.552 21.12 508.552 20.336C508.552 19.648 508.312 19.064 507.832 18.584C507.368 18.104 506.76 17.864 506.008 17.864C505.544 17.864 505.136 17.968 504.784 18.176C504.432 18.368 504.2 18.544 504.088 18.704C503.976 18.848 503.904 18.96 503.872 19.04H500.896V9.2Z" fill="white"/>
<ellipse cx="262" cy="17.5" rx="18" ry="17.5" fill="#5C2945"/>
<path d="M254 17.5L259.368 23L271 12" stroke="white" stroke-width="2"/>
<ellipse cx="140" cy="17.5" rx="18" ry="17.5" fill="#5C2945"/>
<path d="M132 17.5L137.368 23L149 12" stroke="white" stroke-width="2"/>
<ellipse cx="18" cy="17.5" rx="18" ry="17.5" fill="#5C2945"/>
<path d="M10 17.5L15.3684 23L27 12" stroke="white" stroke-width="2"/>
<path d="M401.741 14.5264C401.855 15.1742 401.933 15.8341 401.971 16.5042L401.472 16.533C401.491 16.853 401.5 17.1754 401.5 17.5C401.5 17.8246 401.491 18.147 401.472 18.467L401.971 18.4958C401.933 19.1659 401.855 19.8258 401.741 20.4736L401.249 20.3869C401.136 21.0265 400.987 21.6538 400.803 22.2667L401.282 22.4105C401.09 23.0496 400.862 23.6735 400.599 24.2801L400.14 24.0816C399.884 24.675 399.593 25.2513 399.271 25.8083L399.704 26.0585C399.372 26.6341 399.007 27.1895 398.611 27.7225L398.21 27.4247C397.826 27.9427 397.412 28.439 396.972 28.9112L397.337 29.2522C396.885 29.737 396.405 30.197 395.9 30.63L395.575 30.2504C395.086 30.6694 394.573 31.0624 394.038 31.427L394.32 31.8402C393.773 32.2127 393.204 32.5565 392.615 32.8692L392.381 32.4276C391.813 32.7288 391.227 33.0004 390.624 33.2402L390.808 33.7048C390.196 33.9485 389.566 34.1602 388.921 34.3379L388.788 33.8559C388.171 34.0262 387.539 34.1643 386.896 34.2684L386.976 34.762C386.327 34.8669 385.666 34.9381 384.996 34.9737L384.969 34.4744C384.649 34.4914 384.325 34.5 384 34.5C383.675 34.5 383.351 34.4914 383.031 34.4744L383.004 34.9737C382.334 34.9381 381.673 34.8669 381.024 34.762L381.104 34.2684C380.461 34.1643 379.829 34.0262 379.212 33.8559L379.079 34.3379C378.434 34.1602 377.804 33.9485 377.192 33.7048L377.376 33.2402C376.773 33.0004 376.187 32.7288 375.619 32.4276L375.385 32.8692C374.796 32.5565 374.227 32.2127 373.68 31.8402L373.962 31.427C373.427 31.0624 372.914 30.6694 372.425 30.2504L372.1 30.63C371.595 30.197 371.115 29.737 370.663 29.2522L371.028 28.9112C370.588 28.439 370.174 27.9427 369.79 27.4247L369.389 27.7225C368.993 27.1895 368.628 26.6341 368.296 26.0585L368.729 25.8083C368.407 25.2513 368.116 24.675 367.86 24.0816L367.401 24.2801C367.138 23.6735 366.91 23.0496 366.718 22.4105L367.197 22.2667C367.013 21.6538 366.864 21.0265 366.751 20.3869L366.259 20.4736C366.145 19.8258 366.067 19.1659 366.029 18.4958L366.528 18.467C366.509 18.147 366.5 17.8246 366.5 17.5C366.5 17.1754 366.509 16.853 366.528 16.533L366.029 16.5042C366.067 15.8341 366.145 15.1742 366.259 14.5264L366.751 14.6131C366.864 13.9735 367.013 13.3462 367.197 12.7333L366.718 12.5895C366.91 11.9504 367.138 11.3265 367.401 10.7199L367.86 10.9184C368.116 10.325 368.407 9.74869 368.729 9.19166L368.296 8.94151C368.628 8.36593 368.993 7.81049 369.389 7.27754L369.79 7.57535C370.174 7.05729 370.588 6.56101 371.028 6.08882L370.663 5.74777C371.115 5.26298 371.595 4.80295 372.1 4.37003L372.425 4.74962C372.914 4.33058 373.427 3.93762 373.962 3.573L373.68 3.15982C374.227 2.78727 374.796 2.44351 375.385 2.13081L375.619 2.57242C376.187 2.27121 376.773 1.99962 377.376 1.75981L377.192 1.29518C377.804 1.05153 378.434 0.83978 379.079 0.662072L379.212 1.14409C379.829 0.973843 380.461 0.835696 381.104 0.731635L381.024 0.23805C381.673 0.133084 382.334 0.0618709 383.004 0.0263284L383.031 0.525627C383.351 0.508618 383.675 0.5 384 0.5C384.325 0.5 384.649 0.508618 384.969 0.525627L384.996 0.0263283C385.666 0.0618707 386.327 0.133084 386.976 0.23805L386.896 0.731635C387.539 0.835696 388.171 0.973843 388.788 1.14409L388.921 0.662072C389.566 0.83978 390.196 1.05153 390.808 1.29518L390.624 1.75981C391.227 1.99962 391.813 2.27121 392.381 2.57242L392.615 2.13081C393.204 2.44351 393.773 2.78727 394.32 3.15983L394.038 3.57301C394.573 3.93762 395.086 4.33058 395.575 4.74962L395.9 4.37003C396.405 4.80296 396.885 5.26298 397.337 5.74777L396.972 6.08882C397.412 6.56101 397.826 7.05729 398.21 7.57535L398.611 7.27754C399.007 7.81049 399.372 8.36593 399.704 8.94151L399.271 9.19166C399.593 9.74869 399.884 10.325 400.14 10.9184L400.599 10.7199C400.862 11.3265 401.09 11.9504 401.282 12.5895L400.803 12.7333C400.987 13.3462 401.136 13.9735 401.249 14.6131L401.741 14.5264Z" fill="#CFE1E4" stroke="#5C2945" stroke-dasharray="2 2"/>
<path d="M379.88 20.344H384.488V14.08L379.88 20.344ZM377 20.272L384.392 10H387.8V20.344H390.2V23.08H387.8V26.8H384.488V23.08H377V20.272Z" fill="#7B3D5D"/>
</svg>
