<svg width="114" height="21" viewBox="0 0 114 21" fill="none" xmlns="http://www.w3.org/2000/svg">
<path d="M8.13303 3.14497L6.18983 7.12106L1.7952 7.74887C1.01792 7.86845 0.71897 8.8251 1.28698 9.39311L4.426 12.4723L3.67862 16.8072C3.55903 17.5845 4.39611 18.1824 5.0837 17.8236L9 15.7608L12.8864 17.8236C13.574 18.1824 14.4111 17.5845 14.2915 16.8072L13.5441 12.4723L16.6831 9.39311C17.2511 8.8251 16.9522 7.86845 16.1749 7.74887L11.8102 7.12106L9.83707 3.14497C9.50822 2.45738 8.49178 2.42748 8.13303 3.14497Z" fill="#FFC75B"/>
<path d="M32.133 3.14497L30.1898 7.12106L25.7952 7.74887C25.0179 7.86845 24.719 8.8251 25.287 9.39311L28.426 12.4723L27.6786 16.8072C27.559 17.5845 28.3961 18.1824 29.0837 17.8236L33 15.7608L36.8864 17.8236C37.574 18.1824 38.4111 17.5845 38.2915 16.8072L37.5441 12.4723L40.6831 9.39311C41.2511 8.8251 40.9522 7.86845 40.1749 7.74887L35.8102 7.12106L33.8371 3.14497C33.5082 2.45738 32.4918 2.42748 32.133 3.14497Z" fill="#FFC75B"/>
<path d="M56.133 3.14497L54.1898 7.12106L49.7952 7.74887C49.0179 7.86845 48.719 8.8251 49.287 9.39311L52.426 12.4723L51.6786 16.8072C51.559 17.5845 52.3961 18.1824 53.0837 17.8236L57 15.7608L60.8864 17.8236C61.574 18.1824 62.4111 17.5845 62.2915 16.8072L61.5441 12.4723L64.6831 9.39311C65.2511 8.8251 64.9522 7.86845 64.1749 7.74887L59.8102 7.12106L57.8371 3.14497C57.5082 2.45738 56.4918 2.42748 56.133 3.14497Z" fill="#FFC75B"/>
<path d="M80.133 3.14497L78.1898 7.12106L73.7952 7.74887C73.0179 7.86845 72.719 8.8251 73.287 9.39311L76.426 12.4723L75.6786 16.8072C75.559 17.5845 76.3961 18.1824 77.0837 17.8236L81 15.7608L84.8864 17.8236C85.574 18.1824 86.4111 17.5845 86.2915 16.8072L85.5441 12.4723L88.6831 9.39311C89.2511 8.8251 88.9522 7.86845 88.1749 7.74887L83.8102 7.12106L81.8371 3.14497C81.5082 2.45738 80.4918 2.42748 80.133 3.14497Z" fill="#FFC75B"/>
<path d="M104.133 3.14497L102.19 7.12106L97.7952 7.74887C97.0179 7.86845 96.719 8.8251 97.287 9.39311L100.426 12.4723L99.6786 16.8072C99.559 17.5845 100.396 18.1824 101.084 17.8236L105 15.7608L108.886 17.8236C109.574 18.1824 110.411 17.5845 110.291 16.8072L109.544 12.4723L112.683 9.39311C113.251 8.8251 112.952 7.86845 112.175 7.74887L107.81 7.12106L105.837 3.14497C105.508 2.45738 104.492 2.42748 104.133 3.14497Z" fill="#FFC75B"/>
</svg>
